<svg width="75" height="32" viewBox="0 0 75 32" fill="none" xmlns="http://www.w3.org/2000/svg">
<g clip-path="url(#clip0_247_1615)">
<path d="M1.09662 13.8175H0V28.43H1.09662V31.4184H2.68672V1.72718H1.09662V13.8175ZM41.2606 31.6924H62.343V30.3217H41.2606V31.6924ZM69.3615 21.3568V0.301572H51.5139V0.904715H30.1299V0H9.10198V28.8959H69.3615V25.195H73.8578V21.3568H69.3615Z" fill="#F06022"/>
<path d="M25.9626 1.86426H32.7617L38.7382 15.9011H32.8439L32.2407 14.2835H26.456L25.8529 15.9011H19.9586L25.9626 1.86426ZM29.3897 6.11369H29.3621L27.7171 10.884H31.0619L29.417 6.11369H29.3897Z" fill="#2A3275"/>
<path d="M4.03012 1.86426H16.6687C19.5474 1.86426 20.8085 3.12538 20.8085 5.37347C20.8085 7.62153 20.2053 7.70379 19.1361 8.11502C20.9456 8.63591 21.5487 10.3083 21.5487 11.3501C21.5487 14.0916 20.1779 15.9011 16.0656 15.9011H4.03012V1.86426ZM9.45843 7.10064H13.653C14.7771 7.10064 15.0238 6.71682 15.0238 6.16852C15.0238 5.6202 14.7771 5.29121 13.653 5.29121H9.45843V7.10064ZM9.45843 12.5015H14.2013C15.298 12.5015 15.6269 12.0355 15.6269 11.4049C15.6269 10.7743 15.298 10.3083 14.2013 10.3083H9.45843V12.5015Z" fill="#2A3275"/>
<path d="M37.6325 1.85513H43.9654L49.5856 9.64117H49.6405V1.85513H54.9591V15.9194H48.873L42.9784 8.05107H42.9511V15.9194H37.6325V1.85513Z" fill="#2A3275"/>
<path d="M56.5309 1.86426H67.3328C72.1031 1.86426 74.598 3.7011 74.598 8.88265C74.598 14.0642 72.1031 15.9011 67.4425 15.9011H56.5309V1.86426ZM62.069 12.3644H65.2492C67.799 12.3644 68.8132 11.1033 68.8132 8.88265C68.8132 6.66198 67.799 5.40087 65.2492 5.40087H62.069V12.3644Z" fill="#2A3275"/>
<path d="M4.00272 17.4637H10.1712L15.6543 25.0305H15.7092V17.4637H20.8633V31.1168H14.9416L9.21169 23.4678H9.18426V31.1168H4.00272V17.4637Z" fill="#2A3275"/>
<path d="M22.097 17.4637H36.6V20.7811H27.4704V22.6179H35.942V25.9352H27.4704V27.772H36.6V31.0892H22.097V17.4637Z" fill="#2A3275"/>
<path d="M35.6677 17.4637H40.8769L42.6313 25.7981H42.6588L44.66 17.4637H48.9644L50.9656 25.7981H50.9931L52.7478 17.4637H57.9567L53.9539 31.1168H48.6628L46.7984 23.55H46.7711L44.9067 31.1168H39.6156L35.6404 17.4637H35.6677Z" fill="#2A3275"/>
<path d="M60.5611 25.332C57.847 24.9208 56.7228 23.3581 56.7228 21.3842C56.7228 17.7653 60.287 16.7784 64.8379 16.7784C69.3891 16.7784 73.6657 18.3959 73.8578 21.3842H67.415C67.415 20.8085 67.0861 20.4521 66.565 20.2602C66.0716 20.0408 65.4411 19.9586 64.8379 19.9586C63.193 19.9586 62.6173 20.3698 62.6173 20.9729C62.6173 21.5761 62.7819 21.6309 63.3575 21.6858L69.9647 22.6727C72.7612 23.084 74.4883 24.3725 74.4883 26.7578C74.4883 30.1847 71.6918 31.7748 65.4684 31.7748C59.2453 31.7748 56.5585 31.1989 56.5309 27.0591H63.193C63.193 27.5253 63.3848 27.8542 63.7961 28.0736C64.2074 28.2655 64.8106 28.3752 65.6878 28.3752C67.415 28.3752 67.8811 27.909 67.8811 27.2237C67.8811 26.5383 67.6344 26.4013 66.8666 26.2916L60.5338 25.3595L60.5611 25.332Z" fill="#2A3275"/>
</g>
<defs>
<clipPath id="clip0_247_1615">
<rect width="75" height="31.8021" fill="white"/>
</clipPath>
</defs>
</svg>
