<svg width="24" height="24" viewBox="0 0 24 24" fill="none" xmlns="http://www.w3.org/2000/svg">
<path d="M4.38072 10.5714C3.59024 10.5714 2.95215 11.2095 2.95215 12C2.95215 12.7905 3.59024 13.4286 4.38072 13.4286C5.1712 13.4286 5.80929 12.7905 5.80929 12C5.80929 11.2095 5.1712 10.5714 4.38072 10.5714ZM4.38072 4.85715C3.59024 4.85715 2.95215 5.49524 2.95215 6.28572C2.95215 7.0762 3.59024 7.71429 4.38072 7.71429C5.1712 7.71429 5.80929 7.0762 5.80929 6.28572C5.80929 5.49524 5.1712 4.85715 4.38072 4.85715ZM4.38072 16.2857C3.59024 16.2857 2.95215 16.9333 2.95215 17.7143C2.95215 18.4952 3.59977 19.1429 4.38072 19.1429C5.16167 19.1429 5.80929 18.4952 5.80929 17.7143C5.80929 16.9333 5.1712 16.2857 4.38072 16.2857ZM7.23786 18.6667H20.5712V16.7619H7.23786V18.6667ZM7.23786 12.9524H20.5712V11.0476H7.23786V12.9524ZM7.23786 5.33334V7.2381H20.5712V5.33334H7.23786Z" fill="#464646"/>
</svg>
