<svg width="40" height="33" viewBox="0 0 40 33" fill="none" xmlns="http://www.w3.org/2000/svg">
<g clip-path="url(#clip0_185_1634)">
<path fill-rule="evenodd" clip-rule="evenodd" d="M18.1628 0.00158013H6.83849C6.4113 0.00158013 6.18224 0.230456 6.08432 0.4429C5.9483 0.735527 6.04211 1.0385 6.04211 1.0385L11.5161 14.9511C12.0471 16.3661 12.0867 17.4911 11.6291 18.311C11.1865 19.1307 10.5447 19.6129 9.75603 19.8061C8.9687 19.991 8.18119 19.839 7.36065 19.4282C6.57314 18.9781 6.10997 18.0846 5.97014 17.1132C5.85003 16.2764 6.05081 15.2484 6.95103 14.1956C7.85143 13.1504 8.37341 11.9849 8.47792 10.6759C8.55892 10.0001 8.37341 9.36543 7.92354 8.80286C7.47319 8.28054 6.91078 7.87027 6.23565 7.64551C5.53838 7.40738 4.79389 7.34113 4.06551 7.45243C3.27803 7.565 2.60322 7.94289 2.00055 8.54541C1.14009 9.44595 0.545143 10.6763 0.199447 12.283C-0.130147 13.8983 -0.0576889 15.5135 0.464962 17.1135C0.802443 18.1263 1.55759 19.0909 2.75587 20.0312C3.92078 20.9238 5.18262 21.3812 6.57314 21.3812H18.035C18.8982 21.3812 18.814 20.5371 18.814 20.5371C18.814 20.5371 18.822 1.21497 18.814 0.709403C18.8138 -0.0675922 18.1628 0.00158013 18.1628 0.00158013Z" fill="#C52127"/>
<path fill-rule="evenodd" clip-rule="evenodd" d="M21.5843 21.381H32.9084C33.3355 21.381 33.5641 21.1524 33.6622 20.94C33.7979 20.6472 33.7038 20.3441 33.7038 20.3441L28.2309 6.43145C27.7006 5.01661 27.6601 3.89161 28.1184 3.07174C28.5603 2.25203 29.2038 1.7698 29.9917 1.57658C30.7792 1.39157 31.5663 1.54372 32.3865 1.95448C33.1752 2.40483 33.6376 3.29815 33.7768 4.26969C33.8976 5.10615 33.6965 6.13404 32.7965 7.1869C31.8963 8.23253 31.3741 9.39777 31.2687 10.7079C31.1884 11.3826 31.3738 12.0179 31.8238 12.581C32.2738 13.104 32.8363 13.5138 33.5117 13.7384C34.2087 13.9764 34.953 14.0426 35.6814 13.9314C36.4701 13.819 37.1436 13.4411 37.7474 12.8381C38.6074 11.9381 39.2019 10.7088 39.5471 9.10055C39.8774 7.48545 39.8044 5.86969 39.2825 4.27001C38.9447 3.25723 38.189 2.29261 36.9917 1.35246C35.8252 0.460291 34.5644 0.00221252 33.1741 0.00221252H21.7127C20.8489 0.00221252 20.9329 0.846735 20.9329 0.846735C20.9329 0.846735 20.9253 20.1689 20.9329 20.6745C20.9445 21.3815 21.5843 21.381 21.5843 21.381Z" fill="#C52127"/>
<path d="M36.9882 27.1838H34.6044C34.1384 27.1838 33.8487 26.8941 33.8487 26.428C33.8487 25.9619 34.1384 25.6722 34.6044 25.6722H38.5692L38.9406 25.6737V23.8037H34.4746C33.0033 23.8037 31.8503 24.9565 31.8503 26.428C31.8503 27.9484 32.9541 29.0519 34.4746 29.0519H36.8582C37.3244 29.0519 37.6138 29.3419 37.6138 29.8076C37.6138 30.2735 37.3241 30.5632 36.8582 30.5632H31.9822V32.4314H36.9882C38.6311 32.4314 39.6122 31.0973 39.6122 29.8073C39.6122 28.2876 38.5084 27.1838 36.9882 27.1838ZM6.84413 29.2451L2.00769 24.1317C1.90958 24.0282 1.79146 23.9457 1.66049 23.8892C1.52952 23.8327 1.38844 23.8034 1.24581 23.8031H1.13211C0.854057 23.8034 0.587459 23.9139 0.390816 24.1105C0.194172 24.3071 0.083539 24.5736 0.0831909 24.8517V32.4316H2.10348V26.9909L6.93978 32.1041C7.03783 32.2076 7.15594 32.29 7.28689 32.3465C7.41781 32.403 7.55889 32.4324 7.70148 32.4327H7.81535C8.09335 32.4324 8.35989 32.3219 8.55648 32.1251C8.75305 31.9286 8.86362 31.6622 8.86394 31.3841V23.8037H6.84759L6.84413 29.2451ZM27.5301 29.307L26.2813 25.4088C26.2139 25.1963 26.0802 25.011 25.8999 24.8798C25.7196 24.7487 25.502 24.6787 25.2791 24.68H25.273C25.0487 24.6804 24.8305 24.7531 24.6508 24.8874C24.4711 25.0216 24.3395 25.2103 24.2755 25.4253L23.105 29.2962L21.3235 23.8767L21.2995 23.8034H19.1398L22.0232 31.7411C22.0972 31.9432 22.2314 32.1176 22.4077 32.2411C22.5839 32.3646 22.7939 32.4308 23.0091 32.4311H23.1745C23.3938 32.4314 23.6076 32.3624 23.7858 32.2346C23.9639 32.1068 24.0975 31.9262 24.1677 31.7187L25.3167 28.3235L26.4203 31.7081C26.4887 31.9186 26.622 32.1019 26.8012 32.2319C26.9803 32.3616 27.196 32.4314 27.4173 32.4311H27.593C27.8079 32.4305 28.0173 32.3643 28.1936 32.2414C28.3695 32.1181 28.5036 31.9441 28.5779 31.7424L31.4817 23.8026H29.3195L27.5301 29.307ZM10.6509 31.3835C10.6512 31.6616 10.7618 31.9281 10.9584 32.1246C11.1549 32.3214 11.4215 32.4319 11.6995 32.4322H18.3259V30.5638H12.6705V29.0522H18.235L18.2391 27.1827L12.6705 27.1843V25.6727H18.3259V23.8037H10.6509V31.3835Z" fill="#C52127"/>
</g>
<defs>
<clipPath id="clip0_185_1634">
<rect width="40" height="32.4324" fill="white"/>
</clipPath>
</defs>
</svg>
