<svg width="74" height="32" viewBox="0 0 74 32" fill="none" xmlns="http://www.w3.org/2000/svg">
<g clip-path="url(#clip0_269_3041)">
<path fill-rule="evenodd" clip-rule="evenodd" d="M68.3456 17.995C68.977 18.5753 69.6216 19.1679 70.5099 19.2298C71.7941 19.3939 72.9698 18.3808 73.2074 17.1521V7.5437C73.2913 7.06768 73.0189 6.62221 72.6221 6.36769C71.9321 5.92723 70.8897 6.35082 70.7466 7.17897C70.7068 8.70978 70.7073 10.2414 70.7078 11.773C70.7084 13.1492 70.7089 14.5254 70.6801 15.901C70.6617 15.9552 70.669 16.063 70.6767 16.1706V16.1706C70.6912 16.3815 70.706 16.592 70.5257 16.4C68.5787 14.6884 66.662 12.9423 64.7453 11.1961L64.7451 11.196V11.1959C63.5408 10.0988 62.3363 9.00167 61.1245 7.91309C60.9273 7.75255 60.7354 7.57073 60.5411 7.387V7.38698V7.38695C59.9192 6.79825 59.2769 6.19001 58.3773 6.20041C58.2987 6.19107 58.22 6.18713 58.1421 6.18713C56.9762 6.18713 55.9765 7.1639 55.754 8.28571V17.8646C55.6505 18.4691 56.1186 19.055 56.6916 19.2129C57.389 19.3702 57.9954 18.9387 58.234 18.3004C58.2358 17.4989 58.2372 16.6973 58.2382 15.8957C58.2411 14.0125 58.2438 12.1293 58.2549 10.2461C58.2945 10.1249 58.277 9.89085 58.2596 9.65494C58.2298 9.25498 58.1997 8.8495 58.4465 8.97889C60.1586 10.4866 61.8324 12.0371 63.5063 13.5875V13.5875V13.5876V13.5877C64.9069 14.8851 66.3078 16.1825 67.7308 17.455C67.9396 17.6215 68.1418 17.8076 68.3456 17.995ZM73.1725 25.0417C73.1012 25.2205 72.8592 25.4251 72.6258 25.5048C72.35 25.5992 71.9055 25.6172 71.6404 25.545C71.1941 25.4237 70.867 25.078 70.867 24.7269V24.6386H71.1587H71.4507L71.5077 24.7545C71.5916 24.9272 71.7769 25.0105 72.0749 25.0105C72.3679 25.0105 72.502 24.9498 72.5849 24.7804C72.6385 24.6705 72.6398 24.6476 72.6 24.5341C72.543 24.3708 72.4302 24.3072 72.1206 24.2642C71.4295 24.168 71.1745 24.0592 71.0077 23.7885C70.9219 23.6492 70.9132 23.6123 70.9137 23.37C70.914 23.0533 70.9842 22.8789 71.1825 22.6994C71.3472 22.5508 71.5196 22.4768 71.8057 22.4323C71.8764 22.4216 71.9485 22.4162 72.0211 22.4155C72.3355 22.4133 72.6546 22.5066 72.87 22.6707C72.9848 22.7583 73.116 23.0121 73.1461 23.2048L73.1665 23.3362H72.8539C72.6037 23.3362 72.5408 23.3276 72.5408 23.2924C72.5408 23.2117 72.3912 23.0688 72.2679 23.0318C72.2008 23.0121 72.0897 22.9956 72.02 22.9956C71.589 22.9956 71.3548 23.4174 71.6771 23.6137C71.7318 23.6464 71.8749 23.6884 71.9955 23.7067C72.5456 23.79 72.6393 23.8111 72.8151 23.8948C72.9434 23.9551 73.0318 24.0237 73.0954 24.1116C73.2612 24.3406 73.2945 24.7377 73.1725 25.0417ZM69.9986 22.5106C69.9986 22.5343 69.7689 23.2275 69.4873 24.0521C69.2059 24.8763 68.9757 25.5554 68.9757 25.5608C68.9757 25.5666 68.8886 25.5669 68.7822 25.5619L68.5884 25.5526L68.3179 24.7933C68.1693 24.3755 68.036 24.0075 68.022 23.9756C68.0032 23.9332 67.9224 24.1328 67.715 24.7352L67.4336 25.5526L67.2359 25.5615L67.0382 25.5705L66.5345 24.0994C66.2576 23.2907 66.0308 22.5924 66.0308 22.5483V22.4679H66.355H66.6792L66.832 22.9407C66.9165 23.2009 67.0448 23.6421 67.1179 23.9207L67.2499 24.4279L67.5239 23.5954C67.6741 23.137 67.8121 22.7102 67.8295 22.6463C67.8609 22.535 67.8675 22.53 67.9966 22.53H68.1312L68.4324 23.4213C68.5982 23.9117 68.7439 24.3313 68.7569 24.3547C68.7708 24.3794 68.8334 24.1845 68.9107 23.874C68.9825 23.5868 69.1042 23.1528 69.1816 22.9102L69.3218 22.4679H69.6604C69.9268 22.4679 69.9986 22.4769 69.9986 22.5106ZM64.465 24.9481H65.0697V25.2428V25.5371H64.1398H63.2095V24.0025V22.4679H64.1242H65.0386V22.7623V23.0573H64.4494H63.8608V23.3671V23.6769H64.4035H64.9457V23.9562V24.2351H64.4035H63.8608V24.5916V24.9481H64.465ZM61.8456 22.4679H61.536H61.2266L61.2182 23.3259L61.21 24.1838L60.3927 23.3259C59.6373 22.5336 59.567 22.4679 59.4702 22.4679H59.3651V24.0025V25.5371H59.6758H59.9854V24.6846C59.9854 24.2157 59.9968 23.832 60.0102 23.832C60.0237 23.832 60.397 24.2143 60.8396 24.6821C61.5619 25.4452 61.654 25.5321 61.7448 25.5346L61.8456 25.5371V24.0025V22.4679ZM55.6463 22.6146L55.4452 22.5152L54.6773 22.5051L53.9091 22.4947V24.0164V25.5377H54.5237C54.8615 25.5377 55.2205 25.5227 55.3222 25.504C55.7295 25.4286 56.0813 25.1694 56.2751 24.8004C56.4182 24.5287 56.4575 24.3517 56.4556 23.9877C56.4543 23.6301 56.3807 23.3667 56.2083 23.1003C56.0642 22.877 55.914 22.7471 55.6463 22.6146ZM54.8468 24.9465C55.0054 24.9458 55.1865 24.9268 55.2509 24.9034C55.6365 24.7659 55.8549 24.4012 55.8242 23.9442C55.805 23.6531 55.7068 23.4302 55.5286 23.273C55.3541 23.1197 55.2417 23.0884 54.8626 23.0884L54.5603 23.0881V24.0178V24.9479L54.8468 24.9465ZM52.1427 24.4317C52.1427 24.4173 52.1918 24.3743 52.2512 24.3355C52.5077 24.1693 52.6561 23.8225 52.6318 23.4452C52.6054 23.0399 52.4 22.728 52.0519 22.5647C51.8824 22.485 51.8642 22.4832 51.1113 22.4731L50.3442 22.4623V23.9999V25.537H50.6544H50.964V25.0254V24.5139H51.2251H51.4856L51.7918 25.0179L52.0978 25.5216L52.4457 25.5302C52.7363 25.5377 52.7933 25.5312 52.7933 25.4932C52.7933 25.4677 52.6471 25.2247 52.4676 24.9522C52.2886 24.6801 52.1424 24.4457 52.1427 24.4317ZM51.7697 23.9335C51.6863 23.9751 51.5833 23.9877 51.313 23.9877H50.964V23.5228V23.0579H51.3442C51.7792 23.0579 51.8945 23.1006 51.9737 23.2898C52.0801 23.5451 51.9925 23.8215 51.7697 23.9335ZM46.5613 22.8671C46.8456 22.5828 47.2299 22.4377 47.6169 22.4334C48.0036 22.4295 48.3927 22.5663 48.6868 22.8441C48.9835 23.1248 49.1337 23.5194 49.1347 24.0198C49.1358 24.6684 48.8433 25.1703 48.3106 25.4338C48.0823 25.5465 48.0609 25.5508 47.6977 25.5605C47.3667 25.5694 47.2965 25.5619 47.113 25.4977C46.4937 25.2812 46.1297 24.7395 46.1284 24.032C46.1273 23.5409 46.2694 23.1593 46.5613 22.8671ZM48.2383 24.7321C48.1478 24.8225 48.0379 24.895 47.9429 24.9277C47.4783 25.0857 47.0085 24.8771 46.8451 24.4402C46.763 24.2205 46.7558 23.8486 46.83 23.6189C46.9485 23.2517 47.2978 23.0352 47.6578 23.0413C47.8215 23.0438 47.9875 23.0923 48.1351 23.1939C48.2462 23.2696 48.3093 23.3472 48.3909 23.5062C48.4899 23.6993 48.4996 23.7402 48.4996 23.984C48.4994 24.339 48.4286 24.5415 48.2383 24.7321ZM45.1293 24.4215H44.827H44.5243L44.4501 24.5654C44.3506 24.7593 44.199 24.8742 43.9641 24.9341C43.8078 24.9739 43.7374 24.9772 43.6141 24.951C43.2913 24.8817 43.1173 24.7413 42.9763 24.4369C42.8137 24.0848 42.8766 23.6062 43.1218 23.3277C43.3351 23.085 43.6481 22.9913 43.9702 23.0739C44.1906 23.1303 44.3353 23.2325 44.4305 23.3999L44.5002 23.5223L44.803 23.5226H44.8186C44.9933 23.5226 45.0715 23.5226 45.0942 23.4872C45.1126 23.4585 45.0944 23.4064 45.0614 23.3122L45.0577 23.3015C44.8748 22.7777 44.3622 22.4532 43.7257 22.4579C43.0268 22.4629 42.4906 22.8643 42.3098 23.518C42.2396 23.7703 42.2349 24.2147 42.299 24.4621C42.4463 25.0278 42.8615 25.4166 43.4467 25.5365C44.2035 25.6915 44.9487 25.2486 45.1005 24.5532L45.1293 24.4215ZM40.6022 24.9412L41.1988 24.9495V25.2435V25.5371H40.2846H39.3697V24.0025V22.4679H40.2688H41.1679V22.7623V23.0573H40.579H39.9901V23.3671V23.6769H40.5323H41.075V23.9562V24.2351H40.5315H39.988L39.9967 24.5841L40.0056 24.9326L40.6022 24.9412ZM37.6312 24.3758C37.5988 24.3862 37.5718 24.407 37.5718 24.4224C37.5718 24.4379 37.7186 24.6723 37.8973 24.9426C38.0766 25.2133 38.2231 25.4577 38.2231 25.4861C38.2231 25.5306 38.1787 25.5374 37.8844 25.5374H37.5465L37.2392 25.0338L36.932 24.5298H36.6707H36.4093L36.4009 25.0338L36.3922 25.5374H36.0831H35.774V24.0006V22.4635L36.5445 22.4739L37.315 22.484L37.5272 22.5924C37.7767 22.7195 37.9401 22.9112 38.0222 23.1732C38.095 23.4047 38.0744 23.796 37.9789 23.9813C37.8955 24.1424 37.7131 24.3496 37.6312 24.3758ZM37.2332 23.9206C37.13 23.9787 37.0656 23.9877 36.7535 23.9877H36.3935V23.5228V23.0579H36.7739C37.0954 23.0579 37.1682 23.0673 37.2527 23.1186C37.5325 23.2891 37.5214 23.759 37.2332 23.9206ZM52.0996 16.2816C51.3566 15.6947 50.5731 15.1623 49.7881 14.6343C51.5532 14.6713 53.1988 13.2533 53.3823 11.4907C53.3854 11.3855 53.3889 11.2799 53.3926 11.1741V11.1739C53.4203 10.3622 53.4488 9.53624 53.268 8.74457C52.8765 7.42641 51.6541 6.34301 50.2775 6.20841H36.6883C36.096 6.41877 35.7066 7.01573 35.7935 7.64862C35.7626 11.0571 35.7597 14.4666 35.7959 17.8751C35.6858 18.7033 36.5455 19.4349 37.3464 19.2033C37.9084 19.035 38.3717 18.4628 38.2745 17.8618C38.2856 17.5722 38.2848 17.2805 38.284 16.9888C38.2824 16.3908 38.2811 15.7923 38.3801 15.2087C38.5596 14.7729 39.034 14.5521 39.483 14.6257C39.7026 14.6262 39.9227 14.625 40.1432 14.6238C41.562 14.6163 42.9919 14.6087 44.359 15.0403C46.9955 15.7618 49.2554 17.3722 51.421 18.9786C52.112 19.5792 53.2756 19.0705 53.3886 18.1892C53.5528 17.4054 52.9124 16.9116 52.3509 16.4788V16.4788C52.2641 16.4119 52.1793 16.3464 52.0996 16.2816ZM41.4612 12.0321C43.7297 12.0293 45.9983 12.0265 48.2668 12.0186C48.5155 11.9997 48.7697 12.0066 49.0244 12.0136C49.508 12.0268 49.9926 12.04 50.4422 11.8761C51.0063 11.5712 50.9825 10.96 50.9603 10.388C50.9543 10.2375 50.9487 10.0897 50.9537 9.95093C51.0435 9.42719 50.6299 8.87975 50.1011 8.82373C48.1319 8.79681 46.1627 8.79288 44.1935 8.7943C43.5616 8.79464 42.9299 8.79562 42.2979 8.7966C40.9601 8.79866 39.6224 8.80071 38.2851 8.79681V12.0366C39.3436 12.0348 40.4024 12.0334 41.4612 12.0321Z" fill="white"/>
<path fill-rule="evenodd" clip-rule="evenodd" d="M30.2541 12.587C30.1089 15.9955 27.738 18.7776 25.3914 21.0287C22.2809 24.0445 18.3077 26.3308 13.9365 26.7459C12.554 26.8161 10.2771 27.1519 10.4928 29.0094C10.7746 30.8897 12.8872 31.4965 14.5069 31.6436C18.06 31.8925 21.658 30.7131 24.5266 28.6414C28.7461 25.5805 30.9022 20.2795 30.6443 15.144C30.6894 14.6264 30.379 12.3016 30.2821 12.3016C30.2639 12.3016 30.2531 12.3871 30.2541 12.587Z" fill="url(#paint0_linear_269_3041)"/>
<path fill-rule="evenodd" clip-rule="evenodd" d="M15.0704 0C11.3252 0.0143591 7.58971 1.3799 4.94189 4.08729C5.62792 3.68165 7.18478 3.06135 8.359 3.08181C13.8366 2.93715 19.0615 5.69085 22.7852 9.57462C24.183 10.8303 25.0744 12.72 26.8611 13.4824C27.0588 13.5406 27.2695 13.5557 27.4735 13.5248C29.065 13.1066 29.6792 11.1756 29.339 9.70278C28.1598 6.78825 26.044 4.25924 23.4389 2.50458C21.0269 0.843235 18.1049 0.0100513 15.1821 0H15.0704Z" fill="url(#paint1_linear_269_3041)"/>
<path fill-rule="evenodd" clip-rule="evenodd" d="M3.44584 6.1768C1.60465 8.37733 0.575109 11.1501 0.170903 13.973C-0.0925855 15.4599 0.0269536 17.117 0.164082 18.532C0.403878 19.6147 0.595572 20.8126 1.01809 21.8784C2.62522 26.4188 6.59082 29.9539 11.2055 31.2563L11.3727 31.2843C10.5105 30.7284 9.69095 30.0806 9.05199 29.2586C8.50166 28.5314 7.87991 27.5943 7.62075 26.8098C6.7014 24.9254 6.24191 22.8466 6.00103 20.7566C5.48556 17.2677 6.17979 13.7422 7.13325 10.4116C7.53351 9.02635 8.3247 7.43538 7.51772 6.05332C7.05678 5.59167 6.44078 5.40393 5.79928 5.40393C4.96108 5.40393 4.07979 5.72521 3.44584 6.1768Z" fill="url(#paint2_linear_269_3041)"/>
</g>
<defs>
<linearGradient id="paint0_linear_269_3041" x1="10.4783" y1="31.6768" x2="30.6651" y2="31.6768" gradientUnits="userSpaceOnUse">
<stop stop-color="#AFEDFF"/>
<stop offset="1" stop-color="#2856FB"/>
</linearGradient>
<linearGradient id="paint1_linear_269_3041" x1="-1.90637" y1="6.321" x2="10.4408" y2="23.2005" gradientUnits="userSpaceOnUse">
<stop stop-color="#AFEDFF"/>
<stop offset="1" stop-color="#2856FB"/>
</linearGradient>
<linearGradient id="paint2_linear_269_3041" x1="0.0143895" y1="31.2843" x2="11.3726" y2="31.2843" gradientUnits="userSpaceOnUse">
<stop stop-color="#AFEDFF"/>
<stop offset="1" stop-color="#2856FB"/>
</linearGradient>
<clipPath id="clip0_269_3041">
<rect width="73.3833" height="31.6763" fill="white"/>
</clipPath>
</defs>
</svg>
