<svg width="80" height="18" viewBox="0 0 80 18" fill="none" xmlns="http://www.w3.org/2000/svg">
<path d="M24.8646 2.77621C24.572 1.68287 23.7127 0.823665 22.6194 0.530992C20.6397 1.58946e-07 12.6978 0 12.6978 0C12.6978 0 4.75593 1.58946e-07 2.7762 0.530992C1.68287 0.823665 0.823665 1.68287 0.530992 2.77621C1.58946e-07 4.75593 0 8.88889 0 8.88889C0 8.88889 1.58946e-07 13.0219 0.530992 15.0016C0.823665 16.0949 1.68287 16.9541 2.7762 17.2468C4.75593 17.7778 12.6978 17.7778 12.6978 17.7778C12.6978 17.7778 20.6397 17.7778 22.6194 17.2468C23.7127 16.9541 24.572 16.0949 24.8646 15.0016C25.3956 13.0219 25.3956 8.88889 25.3956 8.88889C25.3956 8.88889 25.3935 4.75593 24.8646 2.77621Z" fill="#FF0000"/>
<path d="M10.1558 12.6981L16.7535 8.88924L10.1558 5.08029V12.6981Z" fill="white"/>
<path d="M30.7577 11.5588L27.9062 1.26085H30.394L31.3933 5.92897C31.6483 7.07876 31.8343 8.05921 31.9556 8.87033H32.0287C32.1124 8.28917 32.3006 7.31499 32.5911 5.9457L33.6259 1.26085H36.1136L33.2266 11.5588V16.4987H30.7557V11.5588H30.7577Z" fill="black"/>
<path d="M36.8621 16.1722C36.3604 15.8335 36.0029 15.3067 35.7896 14.5917C35.5785 13.8768 35.4719 12.9277 35.4719 11.7403V10.1243C35.4719 8.9264 35.5932 7.96271 35.8357 7.2373C36.0781 6.51189 36.4565 5.9809 36.9708 5.64851C37.4851 5.31612 38.1603 5.14887 38.9965 5.14887C39.8202 5.14887 40.4787 5.31821 40.9762 5.65687C41.4717 5.99553 41.8354 6.52653 42.0653 7.24566C42.2953 7.96689 42.4103 8.9264 42.4103 10.1243V11.7403C42.4103 12.9277 42.2974 13.881 42.0738 14.6001C41.8501 15.3213 41.4863 15.8482 40.9845 16.1805C40.4829 16.513 39.8013 16.6802 38.9421 16.6802C38.0557 16.6822 37.3638 16.5108 36.8621 16.1722ZM39.6759 14.4287C39.8139 14.065 39.885 13.4733 39.885 12.6497V9.18151C39.885 8.38291 39.816 7.79756 39.6759 7.42963C39.5358 7.05961 39.2913 6.87565 38.94 6.87565C38.6014 6.87565 38.361 7.05961 38.223 7.42963C38.0829 7.79965 38.014 8.38291 38.014 9.18151V12.6497C38.014 13.4733 38.0808 14.067 38.2147 14.4287C38.3485 14.7924 38.5888 14.9743 38.94 14.9743C39.2913 14.9743 39.5358 14.7924 39.6759 14.4287Z" fill="black"/>
<path d="M50.5025 16.5008H48.5416L48.3242 15.1378H48.2699C47.7368 16.1663 46.9382 16.6805 45.872 16.6805C45.1341 16.6805 44.5885 16.438 44.2373 15.9552C43.8861 15.4701 43.7104 14.7134 43.7104 13.6849V5.36667H46.217V13.5385C46.217 14.0361 46.2713 14.3893 46.38 14.6005C46.4888 14.8116 46.6706 14.9182 46.9256 14.9182C47.1431 14.9182 47.3521 14.8514 47.5528 14.7176C47.7536 14.5837 47.8999 14.4144 47.9981 14.2096V5.36459H50.5025V16.5008Z" fill="black"/>
<path d="M57.3117 3.27784H54.8239V16.5004H52.3718V3.27784H49.884V1.26258H57.3117V3.27784Z" fill="black"/>
<path d="M63.3573 16.5008H61.3964L61.179 15.1378H61.1247C60.5916 16.1663 59.793 16.6805 58.7268 16.6805C57.9888 16.6805 57.4432 16.438 57.092 15.9552C56.7408 15.4701 56.5652 14.7134 56.5652 13.6849V5.36667H59.0718V13.5385C59.0718 14.0361 59.1261 14.3893 59.2348 14.6005C59.3435 14.8116 59.5254 14.9182 59.7805 14.9182C59.9978 14.9182 60.2069 14.8514 60.4076 14.7176C60.6083 14.5837 60.7546 14.4144 60.8528 14.2096V5.36459H63.3573V16.5008Z" fill="black"/>
<path d="M71.6524 7.14551C71.4998 6.4431 71.2551 5.9351 70.9166 5.61943C70.5779 5.30377 70.1117 5.14698 69.518 5.14698C69.0581 5.14698 68.6274 5.27659 68.2281 5.5379C67.8288 5.79922 67.5194 6.13997 67.302 6.56435H67.2832V0.698349H64.8687V16.4985H66.9383L67.1933 15.4449H67.2477C67.4421 15.8212 67.7326 16.1159 68.1194 16.3355C68.5062 16.5529 68.9368 16.6616 69.4093 16.6616C70.2559 16.6616 70.881 16.2707 71.2803 15.4908C71.6796 14.709 71.8802 13.4902 71.8802 11.8304V10.0681C71.8802 8.82419 71.8029 7.84793 71.6524 7.14551ZM69.3549 11.6882C69.3549 12.4993 69.3214 13.1348 69.2545 13.5948C69.1877 14.0547 69.0768 14.3829 68.918 14.5752C68.7612 14.7696 68.5479 14.8658 68.2824 14.8658C68.0755 14.8658 67.8853 14.8177 67.7096 14.7195C67.5341 14.6233 67.3919 14.477 67.2832 14.2846V7.96499C67.3668 7.66186 67.5132 7.41519 67.7201 7.22077C67.925 7.02635 68.1508 6.93019 68.3911 6.93019C68.6463 6.93019 68.8427 7.03053 68.9807 7.22914C69.1207 7.42982 69.2169 7.76431 69.2713 8.23676C69.3256 8.70922 69.3528 9.38026 69.3528 10.252V11.6882H69.3549Z" fill="black"/>
<path d="M75.4361 12.33C75.4361 13.0449 75.457 13.5801 75.4989 13.9376C75.5407 14.295 75.6285 14.5543 75.7623 14.7195C75.896 14.8825 76.1009 14.964 76.379 14.964C76.7532 14.964 77.0124 14.8177 77.1503 14.5271C77.2904 14.2365 77.3657 13.7516 77.3783 13.0742L79.5399 13.2017C79.5524 13.2979 79.5586 13.4316 79.5586 13.601C79.5586 14.6295 79.2764 15.3988 78.7141 15.9068C78.1518 16.4148 77.3552 16.6699 76.3267 16.6699C75.0912 16.6699 74.2257 16.2831 73.7303 15.5076C73.2328 14.732 72.9861 13.5341 72.9861 11.9118V9.96764C72.9861 8.29735 73.2432 7.07649 73.7575 6.30718C74.2718 5.53786 75.1519 5.15321 76.3999 5.15321C77.2591 5.15321 77.9197 5.31 78.3796 5.62567C78.8395 5.94133 79.1635 6.43051 79.3517 7.09739C79.5399 7.76426 79.6339 8.68409 79.6339 9.85893V11.7655H75.4361V12.33ZM75.7539 7.08276C75.6264 7.23954 75.5428 7.49668 75.4989 7.85416C75.457 8.21164 75.4361 8.75308 75.4361 9.48062V10.2792H77.2696V9.48062C77.2696 8.76562 77.2445 8.22418 77.1964 7.85416C77.1483 7.48414 77.0605 7.22491 76.9329 7.07231C76.8055 6.92179 76.6089 6.84444 76.3434 6.84444C76.0759 6.84653 75.8793 6.92597 75.7539 7.08276Z" fill="black"/>
</svg>
