<svg width="80" height="18" viewBox="0 0 80 18" fill="none" xmlns="http://www.w3.org/2000/svg">
<path d="M24.8646 2.77621C24.572 1.68287 23.7127 0.823665 22.6194 0.530992C20.6397 1.58946e-07 12.6978 0 12.6978 0C12.6978 0 4.75593 1.58946e-07 2.7762 0.530992C1.68287 0.823665 0.823665 1.68287 0.530992 2.77621C1.58946e-07 4.75593 0 8.88889 0 8.88889C0 8.88889 1.58946e-07 13.0219 0.530992 15.0016C0.823665 16.0949 1.68287 16.9541 2.7762 17.2468C4.75593 17.7778 12.6978 17.7778 12.6978 17.7778C12.6978 17.7778 20.6397 17.7778 22.6194 17.2468C23.7127 16.9541 24.572 16.0949 24.8646 15.0016C25.3956 13.0219 25.3956 8.88889 25.3956 8.88889C25.3956 8.88889 25.3935 4.75593 24.8646 2.77621Z" fill="#FF0000"/>
<path d="M10.1558 12.6982L16.7535 8.88927L10.1558 5.08032V12.6982Z" fill="white"/>
<path d="M30.7577 11.5588L27.9062 1.26086H30.394L31.3933 5.92899C31.6483 7.07878 31.8343 8.05923 31.9556 8.87035H32.0287C32.1124 8.28918 32.3006 7.31501 32.5911 5.94572L33.6259 1.26086H36.1136L33.2266 11.5588V16.4987H30.7557V11.5588H30.7577Z" fill="white"/>
<path d="M36.8621 16.1722C36.3604 15.8336 36.0029 15.3067 35.7896 14.5918C35.5785 13.8769 35.4719 12.9278 35.4719 11.7403V10.1243C35.4719 8.92646 35.5932 7.96277 35.8357 7.23735C36.0781 6.51195 36.4565 5.98095 36.9708 5.64856C37.4851 5.31617 38.1603 5.14893 38.9965 5.14893C39.8202 5.14893 40.4787 5.31826 40.9762 5.65693C41.4717 5.99558 41.8354 6.52658 42.0653 7.24572C42.2953 7.96694 42.4103 8.92646 42.4103 10.1243V11.7403C42.4103 12.9278 42.2974 13.881 42.0738 14.6001C41.8501 15.3214 41.4863 15.8482 40.9845 16.1806C40.4829 16.513 39.8013 16.6802 38.9421 16.6802C38.0557 16.6823 37.3638 16.5109 36.8621 16.1722ZM39.6759 14.4288C39.8139 14.065 39.885 13.4734 39.885 12.6497V9.18157C39.885 8.38296 39.816 7.79761 39.6759 7.42968C39.5358 7.05966 39.2913 6.8757 38.94 6.8757C38.6014 6.8757 38.361 7.05966 38.223 7.42968C38.0829 7.79971 38.014 8.38296 38.014 9.18157V12.6497C38.014 13.4734 38.0808 14.0671 38.2147 14.4288C38.3485 14.7925 38.5888 14.9744 38.94 14.9744C39.2913 14.9744 39.5358 14.7925 39.6759 14.4288Z" fill="white"/>
<path d="M50.5025 16.5008H48.5416L48.3242 15.1378H48.2699C47.7368 16.1663 46.9382 16.6806 45.872 16.6806C45.1341 16.6806 44.5885 16.4381 44.2373 15.9552C43.8861 15.4702 43.7104 14.7135 43.7104 13.6849V5.36671H46.217V13.5385C46.217 14.0361 46.2713 14.3894 46.38 14.6006C46.4888 14.8117 46.6706 14.9183 46.9256 14.9183C47.1431 14.9183 47.3521 14.8514 47.5528 14.7176C47.7536 14.5838 47.8999 14.4144 47.9981 14.2096V5.36462H50.5025V16.5008Z" fill="white"/>
<path d="M57.3117 3.27784H54.8239V16.5003H52.3718V3.27784H49.884V1.26257H57.3117V3.27784Z" fill="white"/>
<path d="M63.3573 16.5008H61.3964L61.179 15.1378H61.1247C60.5916 16.1663 59.793 16.6806 58.7268 16.6806C57.9888 16.6806 57.4432 16.4381 57.092 15.9552C56.7408 15.4702 56.5652 14.7135 56.5652 13.6849V5.36671H59.0718V13.5385C59.0718 14.0361 59.1261 14.3894 59.2348 14.6006C59.3435 14.8117 59.5254 14.9183 59.7805 14.9183C59.9978 14.9183 60.2069 14.8514 60.4076 14.7176C60.6083 14.5838 60.7546 14.4144 60.8528 14.2096V5.36462H63.3573V16.5008Z" fill="white"/>
<path d="M71.6524 7.14552C71.4998 6.44312 71.2551 5.93512 70.9166 5.61944C70.5779 5.30378 70.1117 5.14699 69.518 5.14699C69.0581 5.14699 68.6274 5.2766 68.2281 5.53792C67.8288 5.79923 67.5194 6.13999 67.302 6.56436H67.2832V0.698364H64.8687V16.4985H66.9383L67.1933 15.4449H67.2477C67.4421 15.8212 67.7326 16.1159 68.1194 16.3355C68.5062 16.5529 68.9368 16.6616 69.4093 16.6616C70.2559 16.6616 70.881 16.2707 71.2803 15.4909C71.6796 14.709 71.8802 13.4902 71.8802 11.8304V10.0681C71.8802 8.82421 71.8029 7.84794 71.6524 7.14552ZM69.3549 11.6882C69.3549 12.4993 69.3214 13.1349 69.2545 13.5948C69.1877 14.0547 69.0768 14.3829 68.918 14.5752C68.7612 14.7696 68.5479 14.8658 68.2824 14.8658C68.0755 14.8658 67.8853 14.8177 67.7096 14.7195C67.5341 14.6233 67.3919 14.477 67.2832 14.2846V7.96501C67.3668 7.66188 67.5132 7.41521 67.7201 7.22079C67.925 7.02637 68.1508 6.9302 68.3911 6.9302C68.6463 6.9302 68.8427 7.03055 68.9807 7.22915C69.1207 7.42984 69.2169 7.76432 69.2713 8.23678C69.3256 8.70923 69.3528 9.38028 69.3528 10.252V11.6882H69.3549Z" fill="white"/>
<path d="M75.4361 12.3299C75.4361 13.0449 75.457 13.5801 75.4989 13.9376C75.5407 14.295 75.6285 14.5543 75.7623 14.7195C75.896 14.8825 76.1009 14.964 76.379 14.964C76.7532 14.964 77.0124 14.8177 77.1504 14.5271C77.2904 14.2365 77.3657 13.7515 77.3783 13.0742L79.5399 13.2017C79.5524 13.2979 79.5586 13.4316 79.5586 13.601C79.5586 14.6295 79.2764 15.3988 78.7141 15.9068C78.1518 16.4148 77.3552 16.6699 76.3267 16.6699C75.0912 16.6699 74.2257 16.2831 73.7303 15.5075C73.2328 14.732 72.9861 13.5341 72.9861 11.9118V9.96763C72.9861 8.29734 73.2432 7.07648 73.7575 6.30717C74.2718 5.53786 75.1519 5.1532 76.3999 5.1532C77.2591 5.1532 77.9197 5.30999 78.3796 5.62566C78.8395 5.94132 79.1635 6.4305 79.3517 7.09739C79.5399 7.76426 79.6339 8.68409 79.6339 9.85892V11.7655H75.4361V12.3299ZM75.7539 7.08275C75.6264 7.23954 75.5428 7.49667 75.4989 7.85415C75.457 8.21163 75.4361 8.75307 75.4361 9.48061V10.2792H77.2696V9.48061C77.2696 8.76562 77.2445 8.22418 77.1964 7.85415C77.1483 7.48413 77.0605 7.2249 76.9329 7.0723C76.8055 6.92178 76.6089 6.84443 76.3434 6.84443C76.0759 6.84652 75.8793 6.92596 75.7539 7.08275Z" fill="white"/>
</svg>
