<svg width="66" height="66" viewBox="0 0 66 66" fill="none" xmlns="http://www.w3.org/2000/svg">
<path d="M46.1542 48.6351C46.1542 47.6064 46.1542 46.5754 46.1542 45.5467C46.1542 45.4608 46.1542 45.3749 46.1564 45.289C46.1586 45.2097 46.2071 45.1744 46.2798 45.1744C46.6876 45.1744 47.0953 45.1744 47.5031 45.1744C47.5802 45.1744 47.6199 45.2119 47.6199 45.2912C47.6199 45.3771 47.6199 45.463 47.6199 45.5489C47.6199 47.2429 47.6199 48.9369 47.6199 50.6309C47.6199 51.0164 47.589 50.9789 47.9615 50.9789C48.9797 50.9789 50.0002 50.9789 51.0184 50.9789C51.1043 50.9789 51.1903 50.9811 51.2763 50.9833C51.3225 50.9855 51.3556 51.0076 51.3622 51.0582C51.3666 51.0891 51.3688 51.1221 51.3666 51.1552C51.3578 51.4548 51.3865 51.7543 51.3512 52.0517C51.0581 52.142 50.7583 52.087 50.463 52.0892C49.1538 52.0958 47.8447 52.0936 46.5377 52.0914C46.1035 52.0914 46.1542 52.1398 46.1542 51.7235C46.152 50.6926 46.1542 49.6638 46.1542 48.6351Z" fill="#CC0000"/>
<path d="M43.3441 48.6394C43.3441 47.5997 43.3441 46.5578 43.3441 45.518C43.3441 45.4321 43.3463 45.3462 43.3485 45.2603C43.3507 45.2118 43.3794 45.1832 43.4301 45.1788C43.4631 45.1766 43.494 45.1744 43.5271 45.1744C43.8929 45.1744 44.2566 45.1722 44.6224 45.1744C44.7943 45.1766 44.7943 45.1788 44.7987 45.3616C44.8009 45.4145 44.7987 45.4696 44.7987 45.5224C44.7987 47.5931 44.7987 49.6638 44.7987 51.7345C44.7987 51.8204 44.7965 51.9063 44.7965 51.9922C44.7943 52.0561 44.7591 52.0869 44.6974 52.0891C44.6753 52.0891 44.6555 52.0913 44.6334 52.0913C44.2588 52.0913 43.8819 52.0935 43.5072 52.0913C43.3529 52.0913 43.3485 52.0869 43.3463 51.9239C43.3441 51.719 43.3463 51.5164 43.3463 51.3115C43.3441 50.4193 43.3441 49.5294 43.3441 48.6394Z" fill="#CC0000"/>
<path d="M42.0769 46.7934C41.7396 46.8419 41.4311 46.886 41.1247 46.93C41.0498 46.941 40.9749 46.9454 40.9021 46.9564C40.6795 46.9895 40.6773 46.9917 40.5804 46.778C40.4349 46.452 40.1858 46.2471 39.842 46.1612C39.4056 46.0533 38.9692 46.0709 38.5351 46.1744C38.4734 46.1899 38.4138 46.2163 38.3543 46.2427C37.7725 46.4916 37.8078 47.2781 38.2397 47.5292C38.4183 47.6327 38.6034 47.7142 38.7995 47.7649C39.1742 47.8596 39.5511 47.9411 39.9258 48.0292C40.2387 48.1019 40.5517 48.1746 40.8536 48.2848C40.9749 48.3288 41.0939 48.3751 41.2107 48.4279C41.8807 48.7363 42.2245 49.2716 42.251 49.9986C42.284 50.9216 41.8697 51.5362 41.0807 51.8864C40.7853 52.0186 40.4724 52.0957 40.1528 52.1375C39.4673 52.2279 38.7841 52.2257 38.1031 52.0869C37.7857 52.023 37.4838 51.9195 37.2017 51.7564C36.6837 51.4547 36.3575 51.0075 36.2033 50.4325C36.1922 50.3929 36.19 50.3532 36.1812 50.296C36.5912 50.2277 36.9923 50.1572 37.3934 50.0955C37.5609 50.0691 37.5697 50.0735 37.6292 50.2321C37.8166 50.7233 38.189 50.97 38.6893 51.0604C39.1059 51.1353 39.5224 51.133 39.939 51.0581C40.1087 51.0273 40.2696 50.9722 40.4239 50.8929C40.9065 50.644 40.9925 49.9083 40.512 49.5756C40.3423 49.4589 40.1616 49.3686 39.9632 49.3179C39.6106 49.2298 39.2536 49.1505 38.9009 49.0624C38.5791 48.9831 38.2574 48.8972 37.9378 48.809C37.7306 48.7518 37.5367 48.6614 37.3493 48.5557C36.8689 48.2848 36.5912 47.8772 36.5184 47.3265C36.4898 47.1106 36.4898 46.9014 36.5206 46.6855C36.589 46.2141 36.816 45.8418 37.2061 45.5709C37.5675 45.3197 37.9753 45.1986 38.4028 45.1325C39.0111 45.0378 39.6216 45.0466 40.2299 45.1369C40.4525 45.1699 40.6685 45.2272 40.8823 45.3065C41.398 45.4982 41.7463 45.8528 41.9402 46.3617C41.9887 46.485 42.024 46.6194 42.0769 46.7934Z" fill="#CC0000"/>
<path fill-rule="evenodd" clip-rule="evenodd" d="M35.2936 52.0925C35.3807 52.0919 35.4679 52.0913 35.5553 52.0913C35.5674 51.9773 35.5293 51.889 35.4932 51.8052C35.4833 51.7821 35.4735 51.7594 35.4649 51.7366C34.7442 49.7629 34.0213 47.7891 33.2984 45.8176C33.2799 45.7678 33.2612 45.7182 33.2425 45.6687C33.1967 45.5473 33.1511 45.4264 33.1089 45.3043C33.0758 45.2074 33.0141 45.1699 32.9149 45.1721C32.7945 45.1736 32.6731 45.1731 32.5514 45.1726C32.4905 45.1724 32.4294 45.1721 32.3683 45.1721C32.2685 45.1721 32.1684 45.1726 32.0683 45.1731C31.8677 45.1741 31.6668 45.1751 31.4669 45.1721C31.3655 45.1721 31.306 45.2118 31.2796 45.3087C31.2711 45.3411 31.2586 45.3721 31.2463 45.4028C31.2426 45.4118 31.239 45.4209 31.2355 45.4299C30.4487 47.5622 29.6619 49.6946 28.8795 51.8269C28.8735 51.8429 28.8665 51.8588 28.8593 51.875C28.8317 51.9374 28.8021 52.0044 28.8266 52.0935H30.1379C30.2084 52.0935 30.2613 52.0715 30.2812 51.9944C30.2937 51.9505 30.3096 51.9078 30.3256 51.8646C30.3322 51.847 30.3387 51.8293 30.3451 51.8115C30.3917 51.6788 30.439 51.546 30.4864 51.4132C30.5867 51.1316 30.6871 50.8498 30.7815 50.5669C30.8605 50.328 30.8789 50.3284 31.043 50.3322C31.0665 50.3328 31.093 50.3334 31.1231 50.3334C31.5242 50.3319 31.9253 50.3324 32.3265 50.3329C32.527 50.3332 32.7276 50.3334 32.9282 50.3334H33.4108C33.4946 50.3334 33.5453 50.3665 33.5739 50.4524C33.687 50.7857 33.8036 51.1156 33.9206 51.4466C33.9358 51.4897 33.951 51.5327 33.9662 51.5758C34.0056 51.6864 34.0492 51.7958 34.0926 51.905C34.1123 51.9547 34.1321 52.0042 34.1514 52.0538C34.2748 52.1085 34.4027 52.1011 34.5303 52.0938C34.5827 52.0908 34.635 52.0878 34.6869 52.0891C34.8889 52.0952 35.0909 52.0939 35.2936 52.0925ZM33.164 49.1989C33.1288 49.0315 32.2714 46.4916 32.1833 46.311C32.1567 46.3932 32.1317 46.472 32.1074 46.5487C32.0634 46.6879 32.0216 46.8199 31.9761 46.952C31.8604 47.2913 31.7441 47.6305 31.6279 47.9697C31.5116 48.309 31.3954 48.6482 31.2796 48.9875C31.2752 49.0001 31.2702 49.0127 31.2651 49.0255C31.2402 49.0885 31.2143 49.1539 31.251 49.2254C31.899 49.265 32.9238 49.2518 33.164 49.1989Z" fill="#CC0000"/>
<path fill-rule="evenodd" clip-rule="evenodd" d="M26.6983 49.6011C26.617 49.4749 26.536 49.3492 26.4551 49.2254C26.4591 49.2209 26.4623 49.2168 26.4651 49.2132C26.4731 49.2032 26.4772 49.198 26.4837 49.2012C26.5807 49.1572 26.6777 49.1153 26.7769 49.0757C27.3146 48.8532 27.6805 48.4633 27.8612 47.9148C28.0177 47.4411 28.0067 46.9653 27.848 46.4917C27.7554 46.212 27.5923 45.9763 27.3697 45.7802C27.1251 45.5621 26.8386 45.4233 26.5278 45.3264C26.1333 45.2031 25.7278 45.1788 25.3178 45.1788H22.2257C22.0238 45.1788 21.9329 45.1711 21.8925 45.2125C21.8521 45.2539 21.862 45.3442 21.862 45.5401V51.7521C21.862 51.7896 21.8626 51.827 21.8631 51.8644C21.8637 51.9019 21.8642 51.9393 21.8642 51.9768C21.8642 52.0561 21.9083 52.0935 21.9832 52.0935H23.2064C23.2836 52.0935 23.3276 52.0649 23.3276 51.9812C23.3262 51.9166 23.3267 51.852 23.3272 51.7874C23.3274 51.755 23.3276 51.7227 23.3276 51.6904C23.3288 51.3468 23.3287 51.0037 23.3287 50.6606C23.3287 50.3175 23.3287 49.9744 23.3298 49.6308C23.3298 49.481 23.3497 49.4634 23.4974 49.4611L23.4995 49.4611C23.8536 49.4589 24.2056 49.4568 24.5597 49.4611C24.6073 49.4618 24.6571 49.4568 24.7068 49.4519C24.825 49.4401 24.9429 49.4284 25.0313 49.492C25.1248 49.5587 25.1867 49.6697 25.2476 49.779C25.2671 49.814 25.2865 49.8488 25.3068 49.8819C25.73 50.5648 26.1509 51.2499 26.5697 51.9371C26.638 52.0517 26.7174 52.0979 26.854 52.0957C27.1261 52.0901 27.399 52.0908 27.6722 52.0914C27.8285 52.0918 27.9848 52.0921 28.1411 52.0913C28.1465 52.0913 28.152 52.0916 28.1576 52.0919C28.1918 52.0935 28.2318 52.0955 28.2734 52.0407C28.1856 51.8925 28.0884 51.7443 27.9904 51.5949C27.9383 51.5156 27.886 51.4358 27.8348 51.3556C27.6849 51.1199 27.5328 50.8864 27.3808 50.6529C27.3182 50.5565 27.2556 50.4604 27.1932 50.3645C27.0973 50.2173 27.0017 50.0705 26.9069 49.9237C26.837 49.8164 26.7675 49.7085 26.6983 49.6011ZM24.1233 48.3426C24.2269 48.3424 24.3305 48.3421 24.434 48.3421C24.5006 48.3421 24.5672 48.342 24.634 48.3418C24.8349 48.3414 25.0367 48.341 25.2385 48.3443C25.4126 48.3465 25.5823 48.3223 25.7476 48.2804C26.206 48.1659 26.4749 47.8289 26.4903 47.3552C26.4925 47.2914 26.4903 47.2275 26.4859 47.1636C26.4573 46.7957 26.2722 46.5424 25.9283 46.4102C25.7256 46.3331 25.5162 46.2935 25.3002 46.2935C24.6985 46.2891 24.099 46.2891 23.4996 46.2913C23.3409 46.2913 23.3276 46.3045 23.3276 46.4499C23.3254 47.027 23.3254 47.6064 23.3276 48.1835C23.3276 48.3289 23.3431 48.3399 23.5018 48.3421C23.7089 48.3436 23.9161 48.3431 24.1233 48.3426Z" fill="#CC0000"/>
<path fill-rule="evenodd" clip-rule="evenodd" d="M19.0739 48.4522C19.3627 48.5139 19.6029 48.569 19.8255 48.6769C20.2178 48.8686 20.5131 49.1527 20.6388 49.5801C20.8459 50.2806 20.6895 51.1838 19.8608 51.6728C19.4156 51.9349 18.9285 52.0429 18.4216 52.0803C18.2441 52.0919 18.0649 52.0916 17.887 52.0914L14.882 52.0913C14.8605 52.0913 14.839 52.0915 14.8176 52.0916C14.7531 52.092 14.6886 52.0924 14.6241 52.0891C14.5624 52.0869 14.5249 52.0539 14.5249 51.9878C14.5227 51.8909 14.5205 51.7939 14.5205 51.6992V45.9718C14.5205 45.9185 14.5204 45.865 14.5203 45.8114C14.5199 45.6505 14.5194 45.4889 14.5227 45.3286C14.5249 45.203 14.5514 45.1788 14.6726 45.1744C14.708 45.1729 14.7443 45.1734 14.7803 45.1739C14.7982 45.1742 14.816 45.1744 14.8335 45.1744H17.7295C18.1593 45.1744 18.5869 45.2008 19.0034 45.3198C19.2745 45.3969 19.528 45.507 19.7506 45.6789C20.0746 45.9278 20.2575 46.256 20.295 46.6613C20.3082 46.8089 20.3126 46.9631 20.2972 47.1107C20.2487 47.6438 19.9842 48.0359 19.5037 48.276C19.427 48.315 19.3459 48.3461 19.2519 48.3821C19.1975 48.403 19.1387 48.4255 19.0739 48.4522ZM17.1654 51.0164C17.0516 51.0164 16.9375 51.0167 16.8234 51.0169C16.5949 51.0174 16.3661 51.0179 16.1383 51.0164C16.0127 51.0142 15.9862 50.9878 15.9862 50.8666C15.9848 50.4891 15.9853 50.1107 15.9857 49.7325C15.986 49.5436 15.9862 49.3547 15.9862 49.166C15.9862 49.089 16.0237 49.0471 16.0986 49.0427C16.1041 49.0427 16.1097 49.0421 16.1152 49.0416C16.1207 49.041 16.1262 49.0405 16.1317 49.0405C16.8171 49.0449 17.5026 49.0493 18.188 49.0559C18.382 49.0581 18.5693 49.1132 18.7456 49.1903C19.0453 49.3224 19.2151 49.5582 19.2503 49.882C19.2944 50.2961 19.1622 50.7939 18.545 50.9481C18.4393 50.9746 18.3357 50.9966 18.2299 50.9988C17.8772 51.0098 17.5246 51.0186 17.1698 51.0274C17.1654 51.023 17.1654 51.0186 17.1654 51.0164ZM16.0964 47.961H16.9978C17.1771 47.9596 17.3563 47.9601 17.5356 47.9605C17.6252 47.9608 17.7148 47.961 17.8045 47.961C17.9984 47.9588 18.188 47.9236 18.3687 47.8531C18.631 47.7518 18.7852 47.5623 18.8271 47.2826C18.8425 47.1768 18.8448 47.0711 18.8337 46.9632C18.8007 46.6503 18.6354 46.4521 18.3444 46.3486C18.1174 46.2693 17.8838 46.2472 17.648 46.2428C17.4041 46.2381 17.159 46.239 16.9137 46.2399C16.8154 46.2403 16.7171 46.2406 16.6187 46.2406H16.6177C16.4461 46.2406 16.2746 46.2406 16.103 46.2428C16.0259 46.2428 15.984 46.2847 15.984 46.3618C15.9818 46.8552 15.9818 47.3486 15.9818 47.8421C15.9818 47.9214 16.0171 47.961 16.0964 47.961Z" fill="#CC0000"/>
<path d="M45.0964 28.2785C45.0766 28.4129 45.0854 28.5164 45.0854 28.6199C45.0854 30.8316 45.0832 33.0432 45.0876 35.2549C45.0876 35.7748 45.0347 36.2858 44.854 36.7726C44.2413 38.416 43.0798 39.4249 41.3452 39.7289C39.5248 40.0483 37.7021 39.1297 36.8205 37.6097C35.7493 35.7637 34.676 33.9178 33.6027 32.074C32.9239 30.9065 32.2428 29.7368 31.564 28.5693C31.5111 28.4789 31.456 28.393 31.4009 28.3049C31.3216 28.3468 31.3502 28.4062 31.3458 28.4525C31.3414 28.5054 31.3436 28.5604 31.3436 28.6133C31.3436 30.706 31.3436 32.8009 31.3436 34.8936C31.3436 35.4421 31.2907 35.9862 31.1585 36.5193C31.0901 36.7903 31.002 37.0546 30.8852 37.3079C30.3474 38.4776 29.4261 39.1892 28.1963 39.5174C27.7181 39.6452 27.2266 39.7046 26.7307 39.7046C24.1631 39.7068 21.5954 39.7289 19.03 39.7002C13.4143 39.6363 8.83661 35.7593 7.59137 30.6091C7.30485 29.424 7.19906 28.219 7.29383 26.9986C7.53847 23.8353 8.8278 21.1787 11.1574 19.0331C12.7376 17.5771 14.5956 16.6386 16.7026 16.1959C17.4938 16.0307 18.2917 15.9425 19.0983 15.9425C20.2907 15.9447 21.483 15.9425 22.6754 15.9425C22.7503 15.9425 22.8252 15.9425 22.9002 15.9536C22.9244 15.9558 22.9531 15.9888 22.9619 16.0152C22.9729 16.0549 22.9685 16.1011 22.9685 16.143C22.9685 16.9801 22.9685 17.8172 22.9685 18.6542C22.9685 18.6961 22.9707 18.7402 22.9641 18.782C22.9575 18.8283 22.9244 18.8569 22.8781 18.8591C22.7812 18.8635 22.6842 18.8657 22.5894 18.8657C21.483 18.8657 20.3766 18.8657 19.2702 18.8657C17.9324 18.8657 16.6409 19.1014 15.4309 19.6808C12.6958 20.9915 11.0075 23.137 10.3552 26.0977C9.46254 30.8492 12.3542 35.1403 16.6188 36.4026C17.3836 36.6295 18.166 36.7572 18.9661 36.7594C21.5007 36.7616 24.0352 36.7528 26.5698 36.766C27.3456 36.7704 28.1545 36.1889 28.3506 35.3562C28.3726 35.2637 28.3859 35.1668 28.3925 35.0698C28.4013 34.9311 28.3991 34.7901 28.3991 34.6513C28.3991 29.9813 28.3991 25.3112 28.3991 20.6412C28.3991 20.5223 28.3925 20.4033 28.4079 20.2866C28.4432 19.9958 28.6548 19.7513 28.9192 19.6852C29.2124 19.6125 29.5011 19.7226 29.6774 19.9826C29.7259 20.0531 29.7656 20.1302 29.8074 20.2051C32.8335 25.4192 35.8595 30.6333 38.8856 35.8474C38.9385 35.94 38.9914 36.0347 39.0465 36.125C39.4498 36.7969 40.2609 37.0612 40.9089 36.8828C41.6075 36.6911 42.11 36.0854 42.1585 35.3386C42.1651 35.2218 42.1629 35.1029 42.1629 34.9839C42.1629 30.206 42.1629 25.4302 42.1629 20.6522C42.1629 20.5333 42.1607 20.4165 42.1695 20.2976C42.1938 20.0024 42.3921 19.7623 42.6654 19.6874C42.9409 19.6125 43.2363 19.7138 43.4082 19.9473C43.4721 20.0332 43.5228 20.128 43.5757 20.2205C46.6105 25.4544 49.6454 30.6884 52.6803 35.9224C52.7288 36.0061 52.7751 36.092 52.828 36.1713C53.2313 36.7881 53.9674 37.0656 54.6837 36.874C55.378 36.6867 55.8805 36.0457 55.9069 35.3122C55.9113 35.1932 55.9091 35.0765 55.9091 34.9575C55.9091 28.7521 55.9091 22.5467 55.9091 16.3413C55.9091 16.2443 55.9113 16.1474 55.9091 16.0505C55.9091 15.969 55.9532 15.9381 56.0281 15.9381C56.081 15.9381 56.1361 15.9381 56.189 15.9381C56.9846 15.9381 57.7781 15.9381 58.5737 15.9381C58.6266 15.9381 58.6817 15.9381 58.7346 15.9403C58.7941 15.9425 58.836 15.9712 58.8382 16.0373C58.8404 16.1122 58.8426 16.1871 58.8426 16.262C58.8426 22.5753 58.8404 28.8865 58.8448 35.1998C58.8448 36.1955 58.6002 37.1119 58.0117 37.9225C57.291 38.9138 56.3257 39.5196 55.1113 39.7245C53.2445 40.0395 51.4196 39.0834 50.5446 37.5635C48.8145 34.561 47.0646 31.5717 45.3212 28.5759C45.2617 28.4855 45.2264 28.371 45.0964 28.2785Z" fill="#CC0000"/>
<path d="M38.2421 27.3026C38.2421 27.1968 38.2421 27.0933 38.2421 26.9876C38.2421 24.7649 38.2443 22.5422 38.2421 20.3217C38.2421 19.6785 38.3567 19.0617 38.6278 18.478C39.2912 17.0527 40.402 16.1782 41.9447 15.9028C43.8181 15.568 45.6254 16.4976 46.5048 18.0088C47.4635 19.6587 48.4244 21.3086 49.3854 22.9586C50.1788 24.3221 50.97 25.6857 51.7635 27.047C51.8163 27.1373 51.8714 27.2255 51.9243 27.3092C52.0015 27.2938 51.986 27.2431 51.986 27.2056C51.9905 27.1087 51.9883 27.0118 51.9883 26.9149C51.9883 23.3837 51.9883 19.8503 51.9883 16.3192C51.9883 15.894 51.9287 15.9425 52.3629 15.9425C53.1035 15.9403 53.844 15.9425 54.5867 15.9425C54.6727 15.9425 54.7586 15.9447 54.8446 15.9491C54.8909 15.9513 54.924 15.9799 54.9262 16.0306C54.9306 16.1055 54.9306 16.1804 54.9306 16.2553C54.9306 22.5246 54.9306 28.7939 54.9306 35.0632C54.9306 35.1381 54.9328 35.213 54.9262 35.2879C54.8975 35.6183 54.7013 35.8562 54.3906 35.9333C54.0975 36.006 53.822 35.8937 53.6434 35.6227C53.5839 35.5324 53.5332 35.4399 53.4781 35.3474C50.4653 30.1508 47.4525 24.9543 44.4396 19.7578C44.3757 19.6455 44.314 19.5331 44.2413 19.4252C43.9019 18.9163 43.2693 18.5595 42.4671 18.7269C41.8125 18.8635 41.3012 19.4362 41.1976 20.1125C41.1711 20.2843 41.1711 20.4539 41.1711 20.6257C41.1711 25.4037 41.1711 30.1795 41.1711 34.9575C41.1711 35.0764 41.1756 35.1932 41.1667 35.3121C41.1425 35.6293 40.9529 35.854 40.6488 35.9311C40.3667 36.0038 40.089 35.9003 39.9171 35.6557C39.8554 35.5676 39.8047 35.4729 39.7518 35.3804C37.1026 30.8161 34.4556 26.2518 31.8065 21.6875C31.3965 20.9826 30.9866 20.2799 30.581 19.5706C30.3452 19.1608 30.0124 18.8723 29.554 18.7489C28.4454 18.4537 27.5043 19.249 27.4294 20.2292C27.4205 20.357 27.4228 20.487 27.4228 20.6147C27.4228 25.2848 27.4228 29.9548 27.4228 34.6248C27.4228 34.7217 27.4161 34.8187 27.4228 34.9156C27.4514 35.3077 27.0635 35.8033 26.539 35.7901C26.0453 35.7769 25.5516 35.7879 25.0579 35.7879C23.0919 35.7879 21.126 35.7879 19.1623 35.7879C15.8585 35.7879 13.0132 33.7789 11.801 30.8998C11.3095 29.7323 11.1045 28.5119 11.2015 27.2497C11.488 23.4608 14.2738 20.7359 17.3925 20.0552C17.9082 19.9429 18.4261 19.8658 18.9551 19.8658C20.2113 19.8636 21.4676 19.8636 22.7239 19.8636C22.7768 19.8636 22.8319 19.8658 22.8848 19.8702C22.9311 19.8746 22.9641 19.901 22.9685 19.9473C22.9751 20.0001 22.9729 20.0552 22.9729 20.1081C22.9729 20.9231 22.9729 21.7404 22.9729 22.5554C22.9729 22.5973 22.9707 22.6413 22.9707 22.6832C22.9685 22.7493 22.9266 22.7757 22.8671 22.7779C22.7812 22.7801 22.6952 22.7801 22.6093 22.7801C21.461 22.7801 20.3105 22.7735 19.1623 22.7823C18.1043 22.7911 17.1302 23.0907 16.2684 23.7141C15.1069 24.5534 14.4105 25.6835 14.1967 27.1043C13.8176 29.6376 15.4463 32.1488 18.1198 32.7436C18.4989 32.8273 18.8845 32.8515 19.2724 32.8515C20.6896 32.8515 22.1068 32.8515 23.5261 32.8515C23.6341 32.8515 23.7421 32.8471 23.8479 32.8317C24.1587 32.7854 24.3945 32.563 24.4672 32.2568C24.5025 32.1092 24.5003 31.9594 24.5003 31.8074C24.5003 29.1023 24.5003 26.3972 24.5003 23.6921C24.5003 22.5753 24.5025 21.4584 24.5003 20.3438C24.4981 19.7248 24.5951 19.1234 24.8485 18.5573C25.5031 17.0858 26.6271 16.1782 28.2096 15.9006C30.1072 15.5658 31.9078 16.524 32.785 18.0418C34.1537 20.4099 35.5334 22.7713 36.9087 25.1372C37.2922 25.7958 37.6734 26.4545 38.0569 27.1109C38.0988 27.1836 38.1473 27.2519 38.1914 27.3224C38.2024 27.3158 38.2222 27.3092 38.2421 27.3026Z" fill="#CC0000"/>
</svg>
