<svg width="52" height="52" viewBox="0 0 52 52" fill="none" xmlns="http://www.w3.org/2000/svg">
<rect width="52" height="52" fill="#CC0000"/>
<path d="M36.364 38.3186C36.364 37.5081 36.364 36.6958 36.364 35.8853C36.364 35.8176 36.364 35.7499 36.3657 35.6822C36.3675 35.6197 36.4057 35.592 36.463 35.592C36.7842 35.592 37.1055 35.592 37.4267 35.592C37.4875 35.592 37.5187 35.6215 37.5187 35.684C37.5187 35.7517 37.5187 35.8193 37.5187 35.887C37.5187 37.2217 37.5187 38.5563 37.5187 39.891C37.5187 40.1947 37.4944 40.1652 37.7879 40.1652C38.5901 40.1652 39.3941 40.1652 40.1964 40.1652C40.2641 40.1652 40.3318 40.167 40.3995 40.1687C40.436 40.1704 40.462 40.1878 40.4672 40.2277C40.4707 40.252 40.4725 40.278 40.4707 40.3041C40.4638 40.5401 40.4863 40.7761 40.4586 41.0104C40.2276 41.0816 39.9915 41.0382 39.7588 41.0399C38.7273 41.0452 37.6959 41.0434 36.6661 41.0417C36.324 41.0417 36.364 41.0799 36.364 40.7518C36.3622 39.9396 36.364 39.1291 36.364 38.3186Z" fill="white"/>
<path d="M34.1499 38.322C34.1499 37.5028 34.1499 36.6819 34.1499 35.8627C34.1499 35.795 34.1516 35.7273 34.1534 35.6596C34.1551 35.6214 34.1777 35.5989 34.2176 35.5954C34.2437 35.5937 34.268 35.5919 34.294 35.5919C34.5823 35.5919 34.8688 35.5902 35.1571 35.5919C35.2925 35.5937 35.2925 35.5954 35.296 35.7394C35.2977 35.7811 35.296 35.8245 35.296 35.8661C35.296 37.4976 35.296 39.129 35.296 40.7605C35.296 40.8282 35.2942 40.8958 35.2942 40.9635C35.2925 41.0139 35.2647 41.0382 35.2161 41.0399C35.1987 41.0399 35.1831 41.0416 35.1657 41.0416C34.8705 41.0416 34.5736 41.0434 34.2784 41.0416C34.1569 41.0416 34.1534 41.0382 34.1516 40.9097C34.1499 40.7483 34.1516 40.5886 34.1516 40.4272C34.1499 39.7243 34.1499 39.0232 34.1499 38.322Z" fill="white"/>
<path d="M33.1515 36.8675C32.8858 36.9057 32.6427 36.9404 32.4013 36.9752C32.3423 36.9838 32.2832 36.9873 32.2259 36.996C32.0505 37.022 32.0488 37.0238 31.9724 36.8554C31.8578 36.5985 31.6616 36.4371 31.3907 36.3694C31.0469 36.2844 30.703 36.2983 30.361 36.3798C30.3123 36.392 30.2655 36.4128 30.2186 36.4337C29.7601 36.6298 29.7879 37.2494 30.1283 37.4472C30.2689 37.5288 30.4148 37.593 30.5693 37.6329C30.8645 37.7076 31.1615 37.7718 31.4567 37.8412C31.7032 37.8985 31.9498 37.9558 32.1877 38.0425C32.2832 38.0772 32.377 38.1137 32.469 38.1553C32.9969 38.3983 33.2678 38.8201 33.2886 39.3928C33.3147 40.12 32.9882 40.6042 32.3666 40.8802C32.1339 40.9843 31.8873 41.0451 31.6355 41.0781C31.0955 41.1492 30.5572 41.1475 30.0206 41.0381C29.7706 40.9878 29.5327 40.9062 29.3104 40.7778C28.9023 40.54 28.6453 40.1877 28.5238 39.7347C28.5151 39.7035 28.5134 39.6722 28.5064 39.6271C28.8294 39.5733 29.1454 39.5178 29.4615 39.4692C29.5934 39.4484 29.6004 39.4518 29.6473 39.5768C29.7949 39.9638 30.0883 40.1582 30.4825 40.2294C30.8107 40.2884 31.1389 40.2866 31.4671 40.2276C31.6008 40.2033 31.7276 40.1599 31.8491 40.0975C32.2294 39.9013 32.2971 39.3217 31.9186 39.0596C31.7849 38.9676 31.6425 38.8964 31.4862 38.8565C31.2084 38.7871 30.927 38.7246 30.6492 38.6552C30.3957 38.5927 30.1422 38.525 29.8904 38.4556C29.7271 38.4105 29.5743 38.3393 29.4267 38.256C29.0482 38.0425 28.8294 37.7215 28.7721 37.2876C28.7495 37.1175 28.7495 36.9526 28.7738 36.7825C28.8277 36.4111 29.0065 36.1178 29.3139 35.9043C29.5987 35.7064 29.9199 35.611 30.2568 35.5589C30.736 35.4843 31.217 35.4912 31.6963 35.5624C31.8717 35.5884 32.0419 35.6336 32.2103 35.696C32.6166 35.847 32.891 36.1265 33.0438 36.5274C33.082 36.6246 33.1098 36.7304 33.1515 36.8675Z" fill="white"/>
<path fill-rule="evenodd" clip-rule="evenodd" d="M27.8071 41.0425C27.8757 41.0421 27.9444 41.0416 28.0133 41.0416C28.0228 40.9518 27.9928 40.8822 27.9643 40.8162C27.9565 40.798 27.9488 40.7801 27.9421 40.7622C27.3742 39.2071 26.8047 37.652 26.2351 36.0987C26.2205 36.0595 26.2058 36.0204 26.1911 35.9813C26.155 35.8857 26.1191 35.7904 26.0858 35.6943C26.0597 35.6179 26.0111 35.5884 25.933 35.5902C25.8381 35.5913 25.7425 35.5909 25.6466 35.5905C25.5985 35.5904 25.5504 35.5902 25.5023 35.5902C25.4237 35.5902 25.3448 35.5905 25.2659 35.5909C25.1079 35.5917 24.9496 35.5925 24.7921 35.5902C24.7122 35.5902 24.6654 35.6214 24.6445 35.6978C24.6378 35.7232 24.628 35.7477 24.6183 35.7719C24.6154 35.779 24.6125 35.7861 24.6098 35.7932C23.9899 37.4733 23.37 39.1533 22.7535 40.8333C22.7488 40.8459 22.7433 40.8584 22.7376 40.8712C22.7159 40.9204 22.6925 40.9731 22.7118 41.0433H23.745C23.8006 41.0433 23.8423 41.026 23.8579 40.9652C23.8678 40.9307 23.8803 40.897 23.8929 40.863C23.8981 40.8491 23.9032 40.8352 23.9083 40.8212C23.945 40.7166 23.9823 40.612 24.0196 40.5073C24.0986 40.2855 24.1777 40.0634 24.2521 39.8406C24.3144 39.6523 24.3288 39.6526 24.4582 39.6557C24.4767 39.6561 24.4975 39.6566 24.5212 39.6566C24.8373 39.6555 25.1533 39.6558 25.4693 39.6562C25.6274 39.6564 25.7854 39.6566 25.9434 39.6566H26.3237C26.3897 39.6566 26.4296 39.6826 26.4522 39.7503C26.5413 40.013 26.6331 40.2729 26.7253 40.5337C26.7373 40.5676 26.7493 40.6015 26.7613 40.6355C26.7923 40.7226 26.8266 40.8088 26.8608 40.8948C26.8764 40.934 26.8919 40.973 26.9071 41.0121C27.0044 41.0552 27.1052 41.0494 27.2057 41.0436C27.2469 41.0412 27.2882 41.0388 27.3291 41.0399C27.4882 41.0447 27.6474 41.0436 27.8071 41.0425ZM26.1292 38.7628C26.1015 38.6309 25.426 36.6298 25.3565 36.4874C25.3355 36.5522 25.3159 36.6143 25.2968 36.6747C25.2621 36.7843 25.2291 36.8884 25.1933 36.9925C25.1021 37.2598 25.0105 37.527 24.9189 37.7943C24.8273 38.0616 24.7357 38.3289 24.6446 38.5962C24.6411 38.6061 24.6371 38.6161 24.6331 38.6261C24.6135 38.6758 24.5931 38.7273 24.622 38.7836C25.1325 38.8148 25.94 38.8044 26.1292 38.7628Z" fill="white"/>
<path fill-rule="evenodd" clip-rule="evenodd" d="M21.035 39.0796C20.971 38.9802 20.9072 38.8812 20.8434 38.7837C20.8465 38.7801 20.8491 38.7768 20.8513 38.774C20.8576 38.7661 20.8608 38.762 20.866 38.7646C20.9424 38.7299 21.0188 38.6969 21.0969 38.6656C21.5206 38.4904 21.8089 38.1832 21.9513 37.751C22.0745 37.3779 22.0659 37.003 21.9408 36.6298C21.8679 36.4094 21.7394 36.2237 21.564 36.0692C21.3713 35.8974 21.1455 35.7881 20.9007 35.7117C20.5899 35.6145 20.2704 35.5954 19.9474 35.5954H17.5111C17.3521 35.5954 17.2805 35.5893 17.2486 35.622C17.2168 35.6546 17.2246 35.7257 17.2246 35.8801V40.7744C17.2246 40.8039 17.225 40.8334 17.2255 40.8629C17.2259 40.8924 17.2263 40.9219 17.2263 40.9514C17.2263 41.0139 17.2611 41.0434 17.3201 41.0434H18.2838C18.3446 41.0434 18.3793 41.0208 18.3793 40.9549C18.3782 40.904 18.3786 40.853 18.379 40.8021C18.3792 40.7767 18.3793 40.7512 18.3793 40.7258C18.3802 40.455 18.3802 40.1847 18.3802 39.9144C18.3802 39.6441 18.3802 39.3738 18.3811 39.103C18.3811 38.985 18.3967 38.9711 18.5131 38.9694L18.5148 38.9694C18.7938 38.9676 19.071 38.9659 19.35 38.9694C19.3876 38.9699 19.4268 38.966 19.466 38.9621C19.5591 38.9528 19.652 38.9436 19.7216 38.9937C19.7953 39.0463 19.844 39.1337 19.892 39.2198C19.9074 39.2474 19.9227 39.2748 19.9387 39.3009C20.2721 39.8389 20.6038 40.3787 20.9337 40.9202C20.9875 41.0104 21.05 41.0469 21.1577 41.0451C21.372 41.0407 21.5871 41.0412 21.8024 41.0417C21.9255 41.042 22.0486 41.0423 22.1718 41.0416C22.176 41.0416 22.1803 41.0419 22.1848 41.0421C22.2117 41.0434 22.2432 41.0449 22.276 41.0017C22.2068 40.885 22.1302 40.7682 22.053 40.6505C22.012 40.588 21.9708 40.5252 21.9304 40.462C21.8123 40.2763 21.6925 40.0923 21.5727 39.9083C21.5234 39.8323 21.4741 39.7566 21.4249 39.6811C21.3493 39.5651 21.274 39.4495 21.1994 39.3338C21.1443 39.2492 21.0895 39.1643 21.035 39.0796ZM19.0062 38.0881C19.0878 38.0879 19.1694 38.0877 19.2511 38.0877C19.3035 38.0877 19.356 38.0876 19.4086 38.0875C19.5669 38.0872 19.7259 38.0868 19.8849 38.0895C20.022 38.0912 20.1557 38.0721 20.286 38.0391C20.6472 37.9489 20.859 37.6833 20.8712 37.3102C20.8729 37.2598 20.8712 37.2095 20.8677 37.1592C20.8451 36.8693 20.6993 36.6697 20.4284 36.5656C20.2686 36.5049 20.1037 36.4736 19.9335 36.4736C19.4594 36.4702 18.9871 36.4702 18.5148 36.4719C18.3898 36.4719 18.3793 36.4823 18.3793 36.5969C18.3776 37.0516 18.3776 37.508 18.3793 37.9628C18.3793 38.0773 18.3915 38.086 18.5165 38.0877C18.6798 38.0889 18.843 38.0885 19.0062 38.0881Z" fill="white"/>
<path fill-rule="evenodd" clip-rule="evenodd" d="M15.028 38.1745C15.2554 38.2231 15.4447 38.2665 15.6201 38.3515C15.9292 38.5025 16.1619 38.7264 16.2609 39.0631C16.4241 39.615 16.3008 40.3266 15.6479 40.7119C15.2971 40.9184 14.9134 41.0035 14.514 41.033C14.3741 41.0421 14.233 41.0419 14.0928 41.0417L11.7252 41.0416C11.7083 41.0416 11.6914 41.0418 11.6745 41.0419C11.6237 41.0422 11.5729 41.0425 11.5221 41.0399C11.4734 41.0382 11.4439 41.0121 11.4439 40.9601C11.4422 40.8837 11.4404 40.8073 11.4404 40.7327V36.2202C11.4404 36.1782 11.4403 36.136 11.4402 36.0938C11.4399 35.967 11.4396 35.8397 11.4422 35.7134C11.4439 35.6145 11.4647 35.5954 11.5603 35.592C11.5881 35.5908 11.6167 35.5912 11.6451 35.5916C11.6592 35.5918 11.6732 35.592 11.687 35.592H13.9687C14.3073 35.592 14.6442 35.6128 14.9724 35.7065C15.186 35.7672 15.3857 35.854 15.5611 35.9894C15.8163 36.1855 15.9605 36.4441 15.99 36.7635C16.0004 36.8798 16.0039 37.0012 15.9917 37.1175C15.9535 37.5375 15.7451 37.8465 15.3666 38.0356C15.3061 38.0664 15.2422 38.0909 15.1682 38.1193C15.1253 38.1357 15.079 38.1535 15.028 38.1745ZM13.5242 40.1948C13.4346 40.1948 13.3447 40.195 13.2548 40.1951C13.0748 40.1955 12.8945 40.1959 12.715 40.1948C12.6161 40.193 12.5952 40.1722 12.5952 40.0767C12.5941 39.7793 12.5945 39.4811 12.5948 39.1832C12.595 39.0343 12.5952 38.8855 12.5952 38.7369C12.5952 38.6761 12.6247 38.6432 12.6838 38.6397C12.6881 38.6397 12.6925 38.6393 12.6968 38.6388C12.7011 38.6384 12.7055 38.638 12.7098 38.638C13.2499 38.6414 13.7899 38.6449 14.33 38.6501C14.4828 38.6518 14.6304 38.6952 14.7693 38.756C15.0054 38.8601 15.1391 39.0458 15.1669 39.3009C15.2017 39.6272 15.0975 40.0195 14.6113 40.141C14.5279 40.1618 14.4463 40.1791 14.3629 40.1809C14.0851 40.1896 13.8073 40.1965 13.5277 40.2034C13.5242 40.2 13.5242 40.1965 13.5242 40.1948ZM12.682 37.7875H13.3922C13.5335 37.7863 13.6747 37.7867 13.8159 37.7871C13.8865 37.7873 13.9572 37.7875 14.0278 37.7875C14.1806 37.7857 14.3299 37.758 14.4723 37.7024C14.679 37.6226 14.8005 37.4733 14.8335 37.2529C14.8457 37.1696 14.8474 37.0863 14.8387 37.0013C14.8127 36.7548 14.6824 36.5986 14.4532 36.517C14.2744 36.4546 14.0903 36.4372 13.9045 36.4337C13.7123 36.43 13.5193 36.4307 13.3259 36.4314C13.2485 36.4317 13.171 36.432 13.0936 36.432H13.0927C12.9576 36.432 12.8224 36.432 12.6872 36.4337C12.6265 36.4337 12.5935 36.4667 12.5935 36.5275C12.5917 36.9162 12.5917 37.305 12.5917 37.6938C12.5917 37.7562 12.6195 37.7875 12.682 37.7875Z" fill="white"/>
<path d="M35.5305 22.28C35.5149 22.3859 35.5218 22.4675 35.5218 22.549C35.5218 24.2916 35.5201 26.0341 35.5236 27.7766C35.5236 28.1862 35.4819 28.5888 35.3395 28.9724C34.8567 30.2671 33.9416 31.062 32.575 31.3015C31.1407 31.5532 29.7047 30.8295 29.0101 29.6319C28.1661 28.1775 27.3205 26.7231 26.4748 25.2704C25.94 24.3506 25.4034 23.429 24.8686 22.5091C24.8269 22.438 24.7835 22.3703 24.7401 22.3009C24.6776 22.3338 24.7002 22.3807 24.6967 22.4171C24.6932 22.4588 24.695 22.5022 24.695 22.5438C24.695 24.1926 24.695 25.8432 24.695 27.492C24.695 27.9241 24.6533 28.3528 24.5491 28.7728C24.4953 28.9863 24.4258 29.1946 24.3338 29.3941C23.9101 30.3157 23.1842 30.8763 22.2153 31.1349C21.8385 31.2356 21.4512 31.2825 21.0605 31.2825C19.0375 31.2842 17.0146 31.3015 14.9933 31.279C10.5688 31.2287 6.96217 28.174 5.98106 24.1163C5.75532 23.1825 5.67197 22.2332 5.74664 21.2717C5.93939 18.7794 6.95522 16.6863 8.79067 14.9958C10.0357 13.8486 11.4996 13.1093 13.1596 12.7604C13.783 12.6302 14.4116 12.5608 15.0472 12.5608C15.9866 12.5625 16.926 12.5608 17.8654 12.5608C17.9245 12.5608 17.9835 12.5608 18.0426 12.5695C18.0617 12.5712 18.0842 12.5973 18.0912 12.6181C18.0999 12.6493 18.0964 12.6858 18.0964 12.7187C18.0964 13.3783 18.0964 14.0378 18.0964 14.6973C18.0964 14.7303 18.0981 14.765 18.0929 14.798C18.0877 14.8344 18.0617 14.857 18.0252 14.8587C17.9488 14.8622 17.8724 14.8639 17.7977 14.8639C16.926 14.8639 16.0543 14.8639 15.1826 14.8639C14.1286 14.8639 13.111 15.0496 12.1577 15.5061C10.0027 16.5387 8.67259 18.2292 8.15859 20.5618C7.45532 24.3054 9.73357 27.6863 13.0936 28.6808C13.6962 28.8596 14.3126 28.9603 14.943 28.962C16.9399 28.9637 18.9368 28.9568 20.9338 28.9672C21.545 28.9707 22.1823 28.5125 22.3368 27.8564C22.3542 27.7835 22.3646 27.7072 22.3698 27.6308C22.3768 27.5215 22.375 27.4104 22.375 27.301C22.375 23.6216 22.375 19.9422 22.375 16.2628C22.375 16.1691 22.3698 16.0754 22.382 15.9834C22.4098 15.7543 22.5765 15.5616 22.7848 15.5096C23.0158 15.4523 23.2433 15.5391 23.3822 15.7439C23.4204 15.7994 23.4516 15.8601 23.4846 15.9191C25.8688 20.0273 28.253 24.1354 30.6371 28.2435C30.6788 28.3164 30.7205 28.391 30.7639 28.4621C31.0817 28.9915 31.7207 29.1998 32.2312 29.0592C32.7817 28.9082 33.1776 28.4309 33.2158 27.8425C33.221 27.7506 33.2193 27.6568 33.2193 27.5631C33.2193 23.7987 33.2193 20.0359 33.2193 16.2715C33.2193 16.1778 33.2175 16.0858 33.2245 15.992C33.2436 15.7595 33.3999 15.5703 33.6152 15.5113C33.8322 15.4523 34.0649 15.5321 34.2004 15.7161C34.2507 15.7838 34.2907 15.8584 34.3323 15.9313C36.7234 20.055 39.1146 24.1788 41.5057 28.3025C41.5439 28.3684 41.5803 28.4361 41.622 28.4986C41.9398 28.9846 42.5198 29.2032 43.0841 29.0522C43.6311 28.9047 44.027 28.3997 44.0479 27.8217C44.0513 27.728 44.0496 27.636 44.0496 27.5423C44.0496 22.6532 44.0496 17.7641 44.0496 12.875C44.0496 12.7986 44.0513 12.7222 44.0496 12.6459C44.0496 12.5816 44.0843 12.5573 44.1434 12.5573C44.185 12.5573 44.2285 12.5573 44.2701 12.5573C44.897 12.5573 45.5221 12.5573 46.149 12.5573C46.1907 12.5573 46.2341 12.5573 46.2757 12.5591C46.3226 12.5608 46.3556 12.5834 46.3574 12.6354C46.3591 12.6944 46.3608 12.7535 46.3608 12.8125C46.3608 17.7866 46.3591 22.7591 46.3626 27.7332C46.3626 28.5177 46.1698 29.2397 45.7062 29.8784C45.1384 30.6594 44.3778 31.1367 43.421 31.2981C41.9502 31.5463 40.5124 30.793 39.823 29.5955C38.4599 27.2299 37.0812 24.8747 35.7076 22.5143C35.6607 22.4432 35.6329 22.3529 35.5305 22.28Z" fill="white"/>
<path d="M30.1301 21.5111C30.1301 21.4278 30.1301 21.3462 30.1301 21.2629C30.1301 19.5117 30.1318 17.7605 30.1301 16.0111C30.1301 15.5043 30.2204 15.0183 30.434 14.5584C30.9566 13.4355 31.8318 12.7465 33.0474 12.5295C34.5233 12.2657 35.9473 12.9981 36.6401 14.1887C37.3955 15.4887 38.1526 16.7886 38.9097 18.0886C39.5348 19.1629 40.1582 20.2372 40.7833 21.3098C40.825 21.3809 40.8684 21.4504 40.9101 21.5163C40.9708 21.5042 40.9587 21.4643 40.9587 21.4348C40.9622 21.3584 40.9604 21.282 40.9604 21.2057C40.9604 18.4235 40.9604 15.6397 40.9604 12.8575C40.9604 12.5226 40.9135 12.5608 41.2556 12.5608C41.8391 12.559 42.4225 12.5608 43.0077 12.5608C43.0754 12.5608 43.1432 12.5625 43.2109 12.566C43.2473 12.5677 43.2734 12.5903 43.2751 12.6302C43.2786 12.6892 43.2786 12.7482 43.2786 12.8072C43.2786 17.7467 43.2786 22.6861 43.2786 27.6255C43.2786 27.6846 43.2803 27.7436 43.2751 27.8026C43.2526 28.0629 43.098 28.2504 42.8532 28.3111C42.6222 28.3684 42.4052 28.2799 42.2645 28.0664C42.2176 27.9952 42.1777 27.9223 42.1343 27.8494C39.7605 23.7552 37.3868 19.661 35.013 15.5668C34.9627 15.4783 34.9141 15.3897 34.8568 15.3047C34.5893 14.9038 34.091 14.6226 33.4589 14.7545C32.9432 14.8621 32.5403 15.3134 32.4587 15.8462C32.4379 15.9816 32.4379 16.1152 32.4379 16.2506C32.4379 20.0151 32.4379 23.7778 32.4379 27.5422C32.4379 27.636 32.4413 27.7279 32.4344 27.8217C32.4153 28.0716 32.2659 28.2486 32.0263 28.3094C31.804 28.3666 31.5853 28.2851 31.4498 28.0924C31.4012 28.023 31.3612 27.9484 31.3196 27.8755C29.2323 24.2794 27.1468 20.6832 25.0596 17.0871C24.7366 16.5318 24.4136 15.9781 24.0941 15.4193C23.9083 15.0964 23.6461 14.8691 23.2849 14.7719C22.4115 14.5393 21.67 15.1659 21.611 15.9382C21.604 16.0388 21.6058 16.1412 21.6058 16.2419C21.6058 19.9213 21.6058 23.6007 21.6058 27.2802C21.6058 27.3565 21.6006 27.4329 21.6058 27.5093C21.6284 27.8182 21.3227 28.2087 20.9095 28.1983C20.5205 28.1879 20.1315 28.1966 19.7426 28.1966C18.1936 28.1966 16.6447 28.1966 15.0975 28.1966C12.4946 28.1966 10.2528 26.6137 9.29772 24.3453C8.91049 23.4255 8.749 22.4639 8.8254 21.4695C9.05114 18.4843 11.246 16.3374 13.7031 15.8011C14.1095 15.7126 14.5175 15.6518 14.9343 15.6518C15.9241 15.6501 16.9139 15.6501 17.9036 15.6501C17.9453 15.6501 17.9887 15.6518 18.0304 15.6553C18.0669 15.6588 18.0929 15.6796 18.0964 15.716C18.1016 15.7577 18.0999 15.8011 18.0999 15.8427C18.0999 16.4849 18.0999 17.1288 18.0999 17.771C18.0999 17.8039 18.0981 17.8386 18.0981 17.8716C18.0964 17.9237 18.0634 17.9445 18.0165 17.9462C17.9488 17.948 17.8811 17.948 17.8133 17.948C16.9086 17.948 16.0022 17.9428 15.0975 17.9497C14.264 17.9567 13.4965 18.1927 12.8175 18.6839C11.9024 19.3451 11.3537 20.2355 11.1853 21.3549C10.8866 23.3508 12.1698 25.3294 14.2762 25.798C14.5748 25.8639 14.8787 25.883 15.1843 25.883C16.3009 25.883 17.4174 25.883 18.5357 25.883C18.6208 25.883 18.7059 25.8796 18.7892 25.8674C19.0341 25.831 19.2199 25.6557 19.2772 25.4144C19.305 25.2981 19.3032 25.1801 19.3032 25.0604C19.3032 22.9291 19.3032 20.7978 19.3032 18.6665C19.3032 17.7866 19.305 16.9066 19.3032 16.0284C19.3015 15.5407 19.3779 15.0669 19.5776 14.6209C20.0933 13.4615 20.9789 12.7465 22.2257 12.5278C23.7208 12.264 25.1395 13.019 25.8306 14.2148C26.9089 16.0805 27.996 17.941 29.0795 19.805C29.3817 20.324 29.6821 20.8429 29.9842 21.3601C30.0172 21.4174 30.0554 21.4712 30.0902 21.5267C30.0988 21.5215 30.1145 21.5163 30.1301 21.5111Z" fill="white"/>
</svg>
