<svg width="75" height="18" viewBox="0 0 75 18" fill="none" xmlns="http://www.w3.org/2000/svg">
<g clip-path="url(#clip0_185_1528)">
<path d="M8.7325 0.692307C6.4231 0.696796 4.20964 1.60921 2.577 3.22967C0.944369 4.85012 0.0256803 7.04651 0.0221863 9.33767C0.0221863 14.1214 3.93406 18 8.73639 18C13.5387 18 17.4676 14.119 17.4676 9.33767C17.4638 4.57327 13.5348 0.692307 8.7325 0.692307ZM14.6875 13.4231C12.7844 13.6314 10.7211 13.6831 8.7325 13.6831C6.7439 13.6831 4.68143 13.6314 2.76049 13.4231C2.21609 13.3714 1.93923 13.2325 1.86923 12.6608C1.76503 11.5698 1.76503 10.4603 1.76503 9.33459C1.76503 8.22584 1.76503 7.11711 1.86923 6.02534C1.93923 5.45362 2.21921 5.31474 2.76049 5.26304C4.68143 5.05549 6.74158 5.00303 8.7325 5.00303C10.7234 5.00303 12.7844 5.05549 14.6875 5.26304C15.2466 5.31474 15.5257 5.45362 15.5958 6.02534C15.6829 7.11711 15.6829 8.22584 15.6829 9.33459C15.6829 10.4603 15.6829 11.5721 15.5958 12.6608C15.5257 13.2356 15.2505 13.3745 14.6875 13.4262V13.4231Z" fill="#E52E2E"/>
<path d="M5.20485 9.33751C5.20824 8.64605 5.41799 7.97108 5.80768 7.39778C6.19734 6.82447 6.74947 6.37853 7.39436 6.11624C8.03924 5.85395 8.74801 5.78705 9.43117 5.92401C10.1143 6.06096 10.7413 6.39562 11.233 6.88574C11.7246 7.37587 12.0589 7.99949 12.1936 8.67793C12.3284 9.35636 12.2575 10.0592 11.99 10.6977C11.7225 11.3362 11.2704 11.8818 10.6906 12.2656C10.1109 12.6495 9.42951 12.8543 8.73253 12.8543C8.26744 12.8556 7.80671 12.7655 7.37699 12.589C6.94726 12.4125 6.55707 12.1533 6.229 11.8262C5.90093 11.4992 5.64151 11.1108 5.4657 10.6836C5.28992 10.2564 5.20124 9.79892 5.20485 9.33751Z" fill="#E52E2E"/>
<path d="M30.4282 8.1248V15.1013C30.4282 15.5163 30.1771 15.7656 29.7587 15.7656H27.6939C27.2755 15.7656 27.0242 15.5163 27.0242 15.1013V8.67878C27.0242 6.85172 26.3243 5.91041 24.8194 5.91041C23.2571 5.91041 22.3923 6.9906 22.3923 8.78912V15.1013C22.3923 15.5163 22.141 15.7656 21.7226 15.7656H19.6578C19.2394 15.7656 18.9881 15.5163 18.9881 15.1013V3.58492C18.9881 3.16983 19.2394 2.92061 19.6578 2.92061H21.5243C21.9427 2.92061 22.1939 3.16983 22.1939 3.58492V4.30403C22.9786 3.39126 24.2338 2.69917 25.7963 2.69917C28.6979 2.69917 30.4282 4.72067 30.4282 8.1248Z" fill="#E52E2E"/>
<path d="M44.6789 9.64787V9.67564C44.6789 10.0907 44.4277 10.34 44.0093 10.34H35.2213C35.5565 11.9734 36.8397 13.0528 38.5412 13.0528C39.63 13.0528 40.4077 12.748 40.9412 12.0559C41.1645 11.7512 41.3877 11.613 41.7501 11.613H43.8701C44.3445 11.613 44.5398 11.9217 44.4006 12.3329C43.6227 14.6854 41.3869 15.987 38.4013 15.987C34.6901 15.987 31.7908 13.1909 31.7908 9.34311C31.7908 5.57864 34.6924 2.69917 38.2085 2.69917C42.251 2.69917 44.6789 5.76999 44.6789 9.64787ZM35.2477 7.79612H41.051C40.6885 6.35638 39.5733 5.55396 38.2892 5.55396C36.7261 5.55088 35.6101 6.49218 35.2477 7.79303V7.79612Z" fill="#E52E2E"/>
<path d="M62.7684 2.92062C63.2427 2.92062 63.4683 3.22925 63.3268 3.66827L59.6436 15.2116C59.5315 15.5719 59.2547 15.7656 58.862 15.7656H56.8532C56.4643 15.7656 56.2115 15.5719 56.0996 15.2116L53.9795 7.57315L51.9147 15.2116C51.8026 15.5719 51.5515 15.7656 51.1611 15.7656H49.1522C48.7634 15.7656 48.4827 15.5719 48.3746 15.2116L44.6322 3.66827C44.4923 3.22385 44.7154 2.92062 45.1922 2.92062H47.7034C48.0923 2.92062 48.345 3.11506 48.4291 3.50238L50.1867 10.8376L52.2235 3.50238C52.3354 3.14284 52.5587 2.92062 52.949 2.92062H55.1811C55.5699 2.92062 55.7955 3.11506 55.9067 3.50238L57.9435 10.8932L59.6739 3.50238C59.7571 3.1166 60.0084 2.92062 60.3986 2.92062H62.7684Z" fill="#E52E2E"/>
<path d="M64.047 12.3329C63.9069 11.89 64.1582 11.613 64.6326 11.613H66.8102C67.1453 11.613 67.3405 11.7512 67.5358 12.0559C67.871 12.5821 68.3453 12.9972 69.6845 12.9972C70.7733 12.9972 71.5261 12.6924 71.5261 12.0837C71.5261 11.032 70.019 10.8932 68.3453 10.5892C66.3085 10.2034 64.0197 9.56454 64.0197 6.6025C64.0197 4.27701 66.0573 2.69917 69.2934 2.69917C72.2237 2.69917 74.0093 4.13891 74.651 6.32552C74.7902 6.79618 74.5398 7.07316 74.0654 7.07316H71.859C71.5246 7.07316 71.3846 6.96284 71.159 6.6025C70.799 6.04929 70.2685 5.69284 68.9573 5.69284C67.8974 5.69284 67.3389 6.13572 67.3389 6.63415C67.3389 7.631 69.0966 7.65878 70.9109 8.01833C72.8638 8.40411 74.9006 9.12552 74.9006 11.8383C74.9006 14.3575 72.6126 15.9909 69.5149 15.9909C66.195 15.987 64.6605 14.2425 64.047 12.3329Z" fill="#E52E2E"/>
</g>
<defs>
<clipPath id="clip0_185_1528">
<rect width="75" height="17.3077" fill="white" transform="translate(0 0.692307)"/>
</clipPath>
</defs>
</svg>
