<svg width="80" height="21" viewBox="0 0 80 21" fill="none" xmlns="http://www.w3.org/2000/svg">
<path d="M8.25219 20.412H0V19.6485H2.5678V1.06821H0V0.367073H8.25219V1.06821H5.62199V19.6485H8.25219V20.412ZM19.476 20.3863C19.1713 20.4029 18.8501 20.412 18.5124 20.412H10.9962V19.6779H13.1363V1.04068H10.9962V0.367073H18.6977H19.0024C19.1584 0.367073 19.3181 0.370743 19.476 0.376249C20.3845 0.411121 21.3059 0.550617 22.2438 0.794733C22.7523 0.958088 23.2093 1.15081 23.6186 1.37473C24.0242 1.6005 24.4886 1.98227 25.008 2.51822C25.5275 3.05968 25.7863 3.87095 25.7863 4.9502C25.7863 6.31577 25.3347 7.384 24.4262 8.1604C23.5213 8.93312 22.343 9.45256 20.8985 9.71686V9.83984C21.2435 9.88205 21.5702 9.94629 21.8767 10.0362C22.1814 10.1298 22.5081 10.2436 22.855 10.3758C23.1983 10.5061 23.5415 10.6676 23.8774 10.8622C24.2133 11.0567 24.5785 11.3119 24.9787 11.6276C25.3751 11.9433 25.7312 12.3911 26.0487 12.9711C26.3626 13.553 26.5204 14.2192 26.5204 14.9718C26.5204 15.504 26.4599 15.9776 26.3369 16.3942C26.2158 16.8109 25.9753 17.2954 25.6192 17.8442C25.2632 18.3949 24.6905 18.8739 23.9068 19.2814C23.1212 19.6907 22.376 19.9605 21.662 20.0927C20.948 20.2248 20.3717 20.3111 19.9348 20.3496C19.788 20.3662 19.6357 20.3772 19.476 20.3863ZM56.5962 0.396441C60.9664 0.642389 63.1487 2.38056 63.1487 5.62197C63.1487 7.25185 62.6311 8.50179 61.5923 9.36446C60.5516 10.2308 59.3347 10.7778 57.9397 11.0017C57.5084 11.0696 57.0605 11.1265 56.5962 11.1779C55.5481 11.2825 54.4138 11.3357 53.1877 11.3357V19.6485H55.572V20.412H47.9934V19.6485H50.2547V1.06821H47.9934V0.367073H54.9901H55.4765C55.8657 0.367073 56.2382 0.376249 56.5962 0.396441ZM56.5962 10.4198C56.776 10.396 56.9504 10.3611 57.1156 10.3134C57.4276 10.2216 57.8277 10.0491 58.3068 9.79395C58.7859 9.53699 59.1878 9.07812 59.5145 8.4192C59.8376 7.7566 60.0028 6.84438 60.0028 5.68437C60.0028 4.3188 59.788 3.30196 59.3622 2.63018C58.9327 1.95657 58.3655 1.52708 57.6644 1.34537C57.3597 1.26461 57.0036 1.20404 56.5962 1.15631C56.0602 1.09758 55.4325 1.06821 54.7148 1.06821H53.8925H53.1877V10.5722H53.586H53.9219C54.7754 10.5722 55.4894 10.53 56.0602 10.451C56.2474 10.451 56.4236 10.44 56.5962 10.4198ZM37.7461 -1.90735e-05H38.8143C40.3634 0.183527 41.5822 0.677263 42.4669 1.4867C43.3534 2.29062 44.005 3.00462 44.4234 3.61582C44.8401 4.22703 45.2843 5.12273 45.7541 6.30109C46.2203 7.47027 46.4571 8.84686 46.4571 10.4198C46.4571 11.031 46.4094 11.6624 46.3176 12.3048C46.2259 12.9454 46.0331 13.742 45.7358 14.6781C45.4421 15.6178 44.9227 16.6035 44.1793 17.6222C43.436 18.6445 42.5219 19.4429 41.4427 20.0248C40.3634 20.6084 39.1318 20.9003 37.7461 20.9003C35.9749 20.9003 34.5854 20.524 33.5741 19.7696C32.5664 19.0171 31.8377 18.3251 31.3917 17.6919C30.8796 17.0403 30.4905 16.3814 30.2134 15.7206C29.9381 15.0599 29.7563 14.5551 29.6646 14.2082C29.5728 13.8613 29.4847 13.5273 29.4039 13.2005C29.3232 12.8738 29.2626 12.5581 29.2204 12.2535C29.18 11.9469 29.1506 11.6423 29.1305 11.3357C29.1084 11.031 29.0974 10.7355 29.0974 10.451C29.0974 8.71838 29.4443 7.0371 30.1381 5.40722C30.8301 3.78101 31.8433 2.4705 33.1776 1.48303C34.512 0.493719 36.0152 -1.90735e-05 37.6837 -1.90735e-05H37.7461ZM37.7461 20.0982C39.0125 20.0431 40.0275 19.6724 40.7984 18.9914C41.6317 18.248 42.2172 17.2844 42.5421 16.1024C42.8688 14.9222 43.034 13.6484 43.034 12.2847V10.4804C43.034 8.03743 42.9019 6.27355 42.6375 5.19615C42.3696 4.11506 42.0704 3.31664 41.7437 2.79721C41.4188 2.27594 40.9948 1.82993 40.4791 1.44999C39.9523 1.07372 39.3759 0.84429 38.7446 0.763529L37.7938 0.671757H37.7461C37.0119 0.677263 36.3181 0.820429 35.6775 1.10125C35.0223 1.38575 34.4257 1.88866 33.8861 2.61366C33.3428 3.335 32.9959 4.25272 32.8436 5.36317C32.6894 6.47362 32.5866 7.37483 32.5389 8.06496C32.4838 8.75876 32.4618 9.55534 32.4618 10.451V11.611C32.4618 12.0185 32.4765 12.4645 32.504 12.9399C32.5389 13.419 32.6013 14.0504 32.7041 14.8341C32.8087 15.6178 33.0363 16.4236 33.3979 17.2496C33.7521 18.0737 34.1835 18.6794 34.6809 19.0667C35.1838 19.4558 35.6426 19.7256 36.0593 19.8779C36.4796 20.0303 36.9256 20.1074 37.3955 20.1074C37.513 20.1074 37.6304 20.1037 37.7461 20.0982ZM19.476 1.09758C19.0997 1.0572 18.6904 1.04068 18.2389 1.04068H17.1376H16.6512H16.1924V9.53515H17.1707H17.9636C18.5307 9.53515 19.0355 9.51129 19.476 9.46724C19.9532 9.41768 20.3552 9.34426 20.6837 9.24515C21.3151 9.05059 21.8199 8.63395 22.1961 7.9897C22.5724 7.34913 22.7596 6.39653 22.7596 5.13558C22.7596 3.9719 22.5797 3.08721 22.2126 2.47601C21.8033 1.88499 21.2857 1.49771 20.6543 1.31233C20.3111 1.21689 19.9202 1.14163 19.476 1.09758ZM19.476 10.3483C18.9529 10.2914 18.3564 10.2675 17.6901 10.2675H16.1924V19.6779H17.4753H17.9948H18.483C18.8391 19.6779 19.1713 19.6687 19.476 19.6485C20.1551 19.6008 20.7167 19.5053 21.1573 19.3585C21.7997 19.1437 22.2934 18.7069 22.6403 18.0443C22.9872 17.3799 23.1597 16.3796 23.1597 15.0342C23.1597 13.5897 22.9487 12.5343 22.532 11.8717C22.1154 11.2091 21.5299 10.7778 20.7736 10.5722C20.4066 10.4731 19.9752 10.3978 19.476 10.3483ZM80 14.6671L79.6935 20.412H64.3564V19.6485H66.5535V1.06821H64.3564V0.367073H79.2071V5.19615H78.6252C78.3811 3.56626 77.8599 2.47601 77.0669 1.92353C76.3126 1.35455 75.1012 1.06821 73.4309 1.06821H69.6701V9.59389H70.162C71.1182 9.59389 71.8267 9.51313 72.2856 9.34977C72.7426 9.18825 73.1134 8.88173 73.4016 8.43388C73.686 7.98603 73.8678 7.32343 73.9503 6.44792H74.624V13.9641H73.9503C73.8678 12.9656 73.686 12.2167 73.4016 11.7175C73.1134 11.2183 72.6674 10.8787 72.0562 10.6952C71.5074 10.4933 70.7108 10.3905 69.6701 10.3905V19.6485H73.8898C75.1526 19.6485 76.1033 19.4815 76.7476 19.1437C77.3882 18.8079 77.9131 18.2939 78.3187 17.6001C78.6454 16.9082 78.963 15.9299 79.2677 14.6671H80Z" fill="white"/>
</svg>
