<?xml version="1.0" encoding="utf-8"?>
<!-- Generator: Adobe Illustrator 27.2.0, SVG Export Plug-In . SVG Version: 6.00 Build 0)  -->
<svg version="1.1" id="Layer_1" xmlns="http://www.w3.org/2000/svg" xmlns:xlink="http://www.w3.org/1999/xlink" x="0px" y="0px"
	 viewBox="0 0 1080 803" style="enable-background:new 0 0 1080 803;" xml:space="preserve">
<style type="text/css">
	.st0{fill:#EED761;}
	.st1{fill:#A57C15;}
	.st2{fill:#C49F36;}
	.st3{fill:#B58F29;}
	.st4{fill:#E6CB57;}
	.st5{fill:#A8811E;}
	.st6{fill:#D2AE42;}
	.st7{fill:#DDBD4D;}
	.st8{fill:#B18A1F;}
	.st9{fill:#BF9C2E;}
	.st10{fill:#9D7615;}
	.st11{fill:#CBAB3B;}
	.st12{fill:#E5CB56;}
	.st13{fill:#DCC14D;}
	.st14{fill:#D5B744;}
	.st15{fill:#AF881E;}
	.st16{fill:#BB972A;}
	.st17{fill:#EFD862;}
	.st18{fill:#C6A435;}
	.st19{fill:#D0B13F;}
	.st20{fill:#E3C854;}
	.st21{fill:#D9BC49;}
	.st22{fill:#88856E;}
	.st23{fill:#6B624C;}
</style>
<path d="M522.4,427.7c2.1,2.7,4.2,5.3,6.3,7.9c2,2.5,3.9,4.9,6,7.5c0-40.4,0-80.6,0-121c12.4,0,24.6,0,36.9,0c0,63.6,0,127.2,0,191
	c-0.3,0-0.7,0.1-1.1,0.1c-7.9,0-15.8,0-23.7,0c-0.6,0-1.3-0.3-1.6-0.8c-4.4-5.4-8.8-10.9-13.2-16.4c-3.8-4.7-7.6-9.3-11.4-14
	c-3.3-4.1-6.6-8.4-9.9-12.5c-2.9-3.6-5.9-7.2-8.8-10.8c-2.9-3.6-5.7-7.3-8.7-10.9c-2.9-3.6-5.8-7.1-8.7-10.7
	c-3.4-4.2-6.7-8.4-10.1-12.6c-2.9-3.6-5.8-7.1-8.7-10.7c-3.4-4.2-6.7-8.4-10.1-12.6c-2.5-3-4.9-6.1-7.4-9.1
	c-0.7-0.9-1.4-1.7-2.2-2.7c0,41.2,0,82.4,0,123.6c-12.5,0-24.8,0-37.3,0c0-63.6,0-127.2,0-191.1c0.5,0,1,0,1.6,0c8,0,16,0.1,24-0.1
	c2.3-0.1,3.5,0.9,4.7,2.5c2.9,3.7,5.9,7.4,8.9,11.1c3.4,4.2,6.7,8.4,10.1,12.6c2.9,3.6,5.8,7.1,8.7,10.7c3.4,4.2,6.7,8.4,10.1,12.6
	c2.4,3,4.9,6,7.3,9c3.4,4.3,6.8,8.6,10.3,12.8c2.4,3,4.8,5.9,7.2,8.8c3.4,4.3,6.8,8.6,10.3,12.8c2.9,3.6,5.8,7.1,8.7,10.7
	C521.1,426.3,521.7,426.9,522.4,427.7z"/>
<path d="M1002.1,480c-4.1-5.7-8.1-11.4-12.1-17c-3.4-4.8-6.9-9.5-10.3-14.3c-3-4.2-6-8.3-9-12.5c-0.2-0.3-0.6-0.6-0.9-0.6
	c-9.7,0-19.4,0-29.3,0c0,25.8,0,51.5,0,77.4c-12.4,0-24.6,0-36.9,0c0-63.6,0-127.3,0-191c0.4,0,0.8-0.1,1.2-0.1
	c23.9,0,47.8-0.1,71.8,0.1c10.1,0.1,20.2,1.1,29.8,4.8c5,1.9,9.6,4.5,13.8,7.9c6.5,5.3,11.4,11.7,14.8,19.3
	c2.1,4.8,3.8,9.8,4.3,15.1c0.5,4.9,0.8,9.8,0.6,14.7c-0.3,6.4-1.9,12.6-4.4,18.5c-1.9,4.5-4.2,8.6-7.2,12.4c-2.9,3.6-6,6.9-9.8,9.5
	c-3.6,2.4-7.5,4.4-11.3,6.7c19.6,27.1,39.4,54.5,59.3,82.1c-1.2,0-2.2,0-3.2,0c-11.9,0-23.9,0-35.8,0c-1.3,0-2-0.4-2.7-1.4
	c-5.8-8.2-11.6-16.3-17.4-24.4C1005.7,484.9,1003.9,482.5,1002.1,480 M940.4,364.9c0,12.6,0,25.1,0,37.7c0.7,0,1.2,0,1.8,0
	c9.7,0,19.4,0,29.1,0c4.4,0,8.9-0.3,13.3-1.2c7.2-1.5,12.5-5.4,15.8-12c2.5-4.9,3.1-10,1.9-15.4c-1.6-7-5.3-12.4-11.7-15.7
	c-4.9-2.6-10.3-3.1-15.7-3.2c-11-0.2-22-0.1-33,0c-0.5,0-0.9,0-1.5,0.1C940.4,358.3,940.4,361.5,940.4,364.9z"/>
<path d="M308.3,322c4.6,0,9,0,13.4,0c3.5,9.5,7.1,18.9,10.6,28.4c2.2,5.9,4.3,11.8,6.4,17.7c3.1,8.5,6.3,17.1,9.4,25.6
	c3.9,10.6,7.8,21.1,11.6,31.7c4,10.9,8,21.8,12,32.7c4.2,11.5,8.5,23,12.7,34.5c2.5,6.8,4.9,13.7,7.4,20.5c-12.3,0-24.6,0-37.1,0
	c-1.1-3.1-2.3-6.2-3.5-9.4c-3-8.2-6-16.4-9-24.5c-1.3-3.4-2.5-6.8-3.8-10.2c-0.1-0.3-0.6-0.6-0.9-0.8c-0.3-0.1-0.6,0-1,0
	c-21.6,0-43.2,0-64.8,0c-1.4,0-1.9,0.6-2.3,1.6c-3.9,10.8-7.8,21.7-11.7,32.5c-1.2,3.3-2.4,6.5-3.6,9.8c-0.2,0.5-0.9,1.1-1.4,1.1
	c-12,0.1-24,0-36.3,0c0.8-2.2,1.6-4.2,2.3-6.2c4.4-11.8,8.7-23.7,13.1-35.5c3.1-8.5,6-17,9.1-25.5c4.2-11.6,8.5-23.1,12.8-34.6
	c4.4-12.1,8.8-24.2,13.3-36.3s8.8-24.2,13.3-36.3c2-5.6,4.1-11.2,6.1-16.8C293.6,322,300.9,322,308.3,322 M325.1,432.4
	c-1.2-3.3-2.5-6.6-3.7-9.9c-3.4-9.2-6.7-18.4-10.1-27.6c-2.4-6.5-4.7-13.1-7.2-19.9c-7.4,20.3-14.7,40.4-22.1,60.5
	c14.8,0,29.3,0,44,0C325.7,434.4,325.4,433.5,325.1,432.4z"/>
<path d="M757.4,386.7c3.5-9.7,6.9-19.3,10.4-28.8c4.3-11.7,8.6-23.4,13-35c0.1-0.4,0.7-0.9,1-0.9c11.5,0,23,0,34.5,0
	c1.6,4.5,3.3,8.9,4.9,13.4c3.3,9,6.6,17.9,9.9,26.9c2.2,6,4.4,12.1,6.6,18.1c3.3,9,6.6,17.9,9.9,26.9c2.2,5.9,4.3,11.8,6.4,17.7
	c3.1,8.6,6.3,17.1,9.5,25.7c4.3,11.7,8.6,23.5,12.9,35.2c3.3,9,6.6,18,10,27.2c-12.4,0-24.8,0-37.2,0c-5.5-14.9-11-29.9-16.5-44.9
	c-22.7,0-45.4,0-68.1,0c-4.4,12.1-8.8,24.2-13.3,36.2c-1,2.6-1.8,5.3-2.8,7.9c-0.1,0.4-0.7,0.8-1.1,0.8c-12,0-24.1,0-36.1,0
	c-0.1,0-0.2-0.1-0.2-0.1c4-11,7.9-22,11.9-32.9c4.4-12.1,8.9-24.3,13.3-36.4c3.2-8.8,6.5-17.5,9.7-26.3c3.6-9.8,7.2-19.7,10.8-29.5
	C757,387.5,757.2,387.2,757.4,386.7 M819.9,433c-2.3-6.3-4.6-12.7-6.9-19c-3.4-9.2-6.7-18.4-10.1-27.6c-1.4-3.7-2.7-7.5-4.1-11.5
	c-7.4,20.3-14.7,40.3-22,60.4c14.8,0,29.3,0,44,0C820.4,434.5,820.1,433.9,819.9,433z"/>
<path d="M643.6,504.4c0-49.8,0-99.5,0-149.3c-16.7,0-33.4,0-50.1,0c0-11.1,0-22,0-33c45.8,0,91.6,0,137.5,0c0,10.9,0,21.8,0,32.9
	c-16.6,0-33.3,0-50.1,0c0,52.8,0,105.4,0,158.1c-12.5,0-24.8,0-37.3,0C643.6,510.3,643.6,507.4,643.6,504.4z"/>
<path d="M190.6,346.8c-5.4,7.6-10.8,15.1-16.1,22.6c-5.9,8.3-11.9,16.5-17.9,24.7c-3.9,5.4-7.7,10.8-11.6,16.2
	c-1.6,2.2-3.1,4.3-4.7,6.5c-0.5,0.6-0.4,1.1,0.1,1.8c3.2,4.4,6.3,8.9,9.5,13.3c4.9,6.8,9.8,13.5,14.7,20.3c3.4,4.7,6.6,9.4,10,14.1
	c4.9,6.8,9.8,13.5,14.7,20.3c2.9,4,5.7,8.1,8.6,12.2c3.3,4.6,6.6,9.2,9.9,13.8c0.1,0.1,0.1,0.3,0.2,0.6c-0.5,0-0.9,0.1-1.3,0.1
	c-12.5,0-25.1,0-37.6,0c-0.7,0-1.7-0.4-2.1-1c-4.4-6.1-8.8-12.4-13.2-18.5c-5.9-8.3-11.9-16.5-17.9-24.7
	c-3.9-5.4-7.7-10.8-11.6-16.2c-4.8-6.8-9.7-13.5-14.6-20.3c-3.5-4.9-7-9.8-10.5-14.7c3.6-5,7.2-9.9,10.8-14.9
	c4.9-6.8,9.8-13.6,14.7-20.4c3.8-5.4,7.7-10.7,11.5-16.1c4.9-6.9,9.8-13.7,14.7-20.6c2.8-4,5.6-8,8.4-11.9c2.7-3.8,5.4-7.5,8.1-11.2
	c0.2-0.3,0.7-0.5,1-0.5c13.1,0,26.2,0,39.9,0C202.2,330.4,196.4,338.6,190.6,346.8z"/>
<path d="M78.2,513.1c-8.1,0-16.3,0-24.5,0c0-63.7,0-127.3,0-191.1c8.1,0,16.1,0,24.4,0.2c0.2,3.2,0.2,6.2,0.2,9.4
	c0,3.9,0,7.7,0,11.7c0,4,0,7.9,0,12c0,4,0,7.9,0,12c0,3.9,0,7.7,0,11.7c0,3.7,0,7.3,0,11c0,4,0,7.9,0,12c0,1.7,0,3.2,0,4.8
	c0,3.9,0,7.7,0,11.7c0,1.3,0,2.5,0,3.9c0,2.3,0,4.5,0,6.8c0,2.2,0,4.3,0,6.5c0,2.1,0,4.1,0,6.2c0,2.9,0,5.6,0,8.4
	c0,3.5,0,6.9,0,10.4c0,3.6,0,7.1,0,10.7c0,1.6,0,3,0,4.5c0,3.2,0,6.2,0,9.4c0,1.1,0,2.1,0,3.2c0,2,0,3.8,0,5.8c0,1.5,0,2.8,0,4.2
	c0,1.2,0,2.3,0,3.6c0,0.9,0,1.7,0,2.6c0,0.8,0,1.5,0,2.3c0,0.9,0,1.7,0,2.6C78.2,510.8,78.2,511.9,78.2,513.1z"/>
<path class="st0" d="M78.2,406.5c0-1.5,0-3,0.1-4.7c6.8-0.2,13.5-0.2,20.2-0.2c0,6.7,0,13.4-0.1,20.3c-6.8,0.1-13.5,0.1-20.2,0.1
	c0-1.2,0-2.4,0.1-3.8c0.1-3.2,0.2-6.1,0.2-9.1C78.5,408.3,78.3,407.4,78.2,406.5z"/>
<path class="st1" d="M78.3,488.2c0-1,0-2,0.1-3.2c0.1-1.6,0.2-2.9,0.2-4.2c0-1.7-0.2-3.5-0.3-5.2c0-1.4,0-2.8,0.1-4.4
	c6.8-0.1,13.5-0.1,20.2-0.1c0,5.6,0,11.2-0.1,17C91.6,488.2,84.9,488.2,78.3,488.2z"/>
<path class="st2" d="M78.3,367c0-3.9,0-7.8,0.1-11.8c6.8-0.2,13.5-0.2,20.2-0.2c0,3.9,0,7.8-0.1,11.8C91.6,367,84.9,367,78.3,367z"
	/>
<path class="st3" d="M98.6,354.9c-6.7,0.2-13.4,0.2-20.2,0.2c-0.2-3.9-0.2-7.8,0-11.8c6.8-0.2,13.5-0.2,20.2-0.2
	C98.6,346.9,98.6,350.8,98.6,354.9z"/>
<path class="st4" d="M98.6,401.5c-6.7,0.2-13.4,0.2-20.2,0.2c-0.2-3.9-0.2-7.8,0-11.8c6.8-0.2,13.5-0.2,20.2-0.2
	C98.6,393.6,98.6,397.5,98.6,401.5z"/>
<path class="st5" d="M98.6,342.9c-6.7,0.2-13.4,0.2-20.2,0.2c-0.2-3.8-0.2-7.6,0-11.5c6.8-0.2,13.5-0.2,20.2-0.2
	C98.6,335.2,98.6,339,98.6,342.9z"/>
<path class="st6" d="M78.2,367.2c6.7-0.2,13.4-0.2,20.2-0.2c0.2,3.8,0.2,7.6,0,11.5c-6.8,0.2-13.5,0.2-20.2,0.2
	C78.2,374.9,78.2,371.1,78.2,367.2z"/>
<path class="st7" d="M78.2,378.8c6.7-0.2,13.4-0.2,20.2-0.2c0.2,3.6,0.2,7.1,0.2,10.9c-6.7,0.2-13.4,0.2-20.2,0.2
	C78.2,386.1,78.2,382.6,78.2,378.8z"/>
<path class="st8" d="M98.6,470.9c-6.7,0.1-13.4,0.1-20.2,0.1c-0.2-3.5-0.2-6.9,0-10.5c6.8-0.1,13.5-0.1,20.2-0.1
	C98.6,463.8,98.6,467.3,98.6,470.9z"/>
<path class="st9" d="M98.6,460.2c-6.7,0.1-13.4,0.1-20.2,0.1c-0.2-3.4-0.2-6.7,0-10.2c6.8-0.1,13.5-0.1,20.2-0.1
	C98.6,453.3,98.6,456.7,98.6,460.2z"/>
<path class="st10" d="M98.6,331.2c-6.7,0.2-13.4,0.2-20.2,0.2c-0.2-3-0.2-6-0.2-9.2c6.7-0.1,13.5-0.1,20.4-0.1
	C98.6,325.1,98.6,328.1,98.6,331.2z"/>
<path class="st11" d="M98.6,449.8c-6.7,0.1-13.4,0.1-20.2,0.1c-0.2-2.7-0.2-5.4,0-8.3c6.8-0.1,13.5-0.1,20.2-0.1
	C98.6,444.3,98.6,447,98.6,449.8z"/>
<path class="st12" d="M78.2,422.3c6.7-0.1,13.4-0.1,20.2-0.1c0.2,2.2,0.2,4.3,0,6.7c-6.8,0.1-13.5,0.1-20.2,0.1
	C78.2,426.7,78.2,424.6,78.2,422.3z"/>
<path class="st13" d="M78.2,429.1c6.7-0.1,13.4-0.1,20.2-0.1c0.2,2.1,0.2,4.1,0,6.3c-6.8,0.1-13.5,0.1-20.2,0.1
	C78.2,433.3,78.2,431.3,78.2,429.1z"/>
<path class="st14" d="M78.2,435.5c6.7-0.1,13.4-0.1,20.2-0.1c0.2,2,0.2,3.9,0.2,6c-6.7,0.1-13.4,0.1-20.2,0.1
	C78.2,439.6,78.2,437.6,78.2,435.5z"/>
<path class="st15" d="M78.2,488.4c6.7-0.2,13.4-0.2,20.2-0.2c0.2,1.8,0.2,3.7,0,5.7c-6.8,0.2-13.5,0.2-20.2,0.2
	C78.2,492.2,78.2,490.4,78.2,488.4z"/>
<path class="st16" d="M78.2,494.2c6.7-0.2,13.4-0.2,20.2-0.2c0.2,1.3,0.2,2.6,0,4.1c-6.8,0.2-13.5,0.2-20.2,0.2
	C78.2,497,78.2,495.7,78.2,494.2z"/>
<path class="st17" d="M78.3,513.1c-0.1-1.2-0.1-2.4,0-3.7c6.8-0.2,13.5-0.2,20.2-0.2c0,1.2,0,2.5,0,3.9
	C91.8,513.1,85.1,513.1,78.3,513.1z"/>
<path class="st18" d="M78.2,498.4c6.7-0.1,13.4-0.2,20.2-0.2c0.2,1.1,0.2,2.2,0,3.4c-6.8,0.2-13.5,0.2-20.2,0.2
	C78.2,500.7,78.2,499.6,78.2,498.4z"/>
<path class="st19" d="M78.2,502c6.7-0.1,13.4-0.1,20.2-0.1c0.2,0.8,0.2,1.5,0,2.4c-6.8,0.1-13.5,0.1-20.2,0.1
	C78.2,503.6,78.2,502.9,78.2,502z"/>
<path class="st20" d="M98.6,509.1c-6.7,0.1-13.4,0.1-20.2,0.2c-0.2-0.8-0.2-1.5,0-2.5c6.8-0.1,13.5-0.1,20.2-0.2
	C98.6,507.4,98.6,508.2,98.6,509.1z"/>
<path class="st21" d="M98.6,506.5c-6.7,0.1-13.4,0.1-20.2,0.1c-0.2-0.7-0.2-1.3-0.2-2.1c6.7-0.1,13.4-0.1,20.2-0.1
	C98.6,505.1,98.6,505.7,98.6,506.5z"/>
<path class="st22" d="M78.2,406.7c0.1,0.7,0.3,1.6,0.3,2.5c0,2.9,0,5.9-0.2,8.9C78.2,414.4,78.2,410.6,78.2,406.7z"/>
<path class="st23" d="M78.2,475.7c0.1,1.6,0.2,3.3,0.3,5.1c0,1.3-0.1,2.7-0.2,4.1C78.2,481.9,78.2,478.9,78.2,475.7z"/>
</svg>
