<?xml version="1.0" encoding="utf-8"?>
<!-- Generator: Adobe Illustrator 27.2.0, SVG Export Plug-In . SVG Version: 6.00 Build 0)  -->
<svg version="1.1" id="Layer_1" xmlns="http://www.w3.org/2000/svg" xmlns:xlink="http://www.w3.org/1999/xlink" x="0px" y="0px"
	 viewBox="0 0 1080 202" style="enable-background:new 0 0 1080 202;" xml:space="preserve">
<style type="text/css">
	.st0{fill:#FFFFFF;}
	.st1{fill:#AB8523;}
	.st2{fill:#ECD564;}
	.st3{fill:#E3C856;}
	.st4{fill:#BE9931;}
	.st5{fill:#A67D15;}
	.st6{fill:#D4B24A;}
	.st7{fill:#CBA63C;}
</style>
<path class="st0" d="M462.6-132.7c-2.8-3.3-5.3-6.4-7.8-9.5c-0.8-1-1.5-2.7-2.9-2.2c-1.6,0.5-0.9,2.3-0.9,3.5c0,16.2,0,32.3,0,48.5
	c0,12.7-0.2,25.3,0.1,38c0.1,4.6-1.4,5.7-5.7,5.5c-6.3-0.3-12.7-0.2-19,0c-3.1,0.1-4.5-0.6-4.5-4.1c0.1-47.3,0.1-94.6,0-142
	c0-3.1,1-4.3,4.1-4c1.3,0.1,2.7,0,4,0c15.5,0,15.2,0.2,24.8,12.4c12.9,16.6,26.3,32.9,39.4,49.3c7.6,9.4,15.2,18.8,22.7,28.3
	c0.8,1,1.5,2.7,2.9,2.4c2-0.5,1.1-2.5,1.1-3.8c0.1-27.3,0-54.7,0-82c0-6.6,0-6.6,6.9-6.6c5.7,0,11.3,0.3,17-0.1
	c4.3-0.3,5.2,1.4,5.2,5.4c-0.1,34.5-0.1,69-0.1,103.5c0,12.2-0.1,24.3,0.1,36.5c0.1,3.8-1.2,4.8-4.9,4.8c-15.9,0.1-15.7,0-26.7-14
	c-13.8-17.6-28.1-34.8-42.2-52.2C471.6-120.8,467.3-126.7,462.6-132.7z"/>
<path class="st0" d="M635.8-69c0,5.8-0.1,11.2,0,16.5c0.1,2.6-0.9,3.6-3.5,3.5c-7.3-0.1-14.7-0.2-22,0c-3.6,0.1-3.5-2-3.5-4.5
	c0-15.5,0-31,0-46.5c0-23-0.1-46,0.1-69c0-3.9-1-5.3-5-5.1c-9.7,0.3-19.3-0.1-29,0.2c-4.2,0.1-5.9-1.5-6-5.3
	c-0.1-5.2-0.2-10.3,0-15.5c0.1-4,2.7-5.3,6.4-5.3c7.8,0,15.7,0,23.5,0c23.3,0,46.7,0,70,0c9.1,0,9.1,0,9.1,9.2c0,4-0.2,8,0.1,12
	c0.2,3.7-0.9,5-4.7,4.9c-9.8-0.2-19.7,0.1-29.5-0.2c-4.7-0.2-5.9,1.6-5.9,6.1C635.9-135.2,635.8-102.3,635.8-69z"/>
<path class="st0" d="M176.6-125.7c5.8-3.3,8-9.2,11.4-13.9c13.6-18.6,26.9-37.5,40.3-56.3c2-2.8,4.9-4,8.2-4.1
	c6.8-0.1,13.7,0,20.5-0.1c1.6,0,3.2,0.2,4.1,1.4c1.2,1.7-0.7,2.8-1.5,3.8c-15.7,22-31.5,43.9-47.4,65.8c-2.2,3-2.9,5.2-0.3,8.7
	c15.8,21.5,31.3,43.3,46.8,65c0.8,1.1,1.5,2.2,2.1,3.4c1.1,1.9,0.4,2.8-1.7,2.8c-8.7,0-17.3,0-26,0c-2,0-2.8-1.3-3.8-2.7
	c-12.3-17.1-24.6-34.2-37-51.3c-4.9-6.7-9-13.9-15.1-20C176.2-123.7,176.1-124.5,176.6-125.7z"/>
<path class="st0" d="M161.2-49.4c-5.3,0.4-10.3,0.1-15.2,0.5c-4.3,0.3-5.2-1.4-5.2-5.4c0.1-33.5,0.1-66.9,0.1-100.4
	c0-13,0.2-26-0.1-39c-0.1-4.8,2-6.2,6.1-6.3c4.3-0.1,8.6-0.2,13.3,0.9c2.1,4.8,1,9.7,1.3,14.5c0.1,2.4,0,4.9,0.5,7.8
	c0.4,2.6,0.5,4.7,0.4,7.3c0.1,2.9,0.2,5.3,0,8.1c0.2,3.5,0.2,6.5,0,10c0.2,4.8,0.2,9.1,0,13.9c0.2,5.4,0.1,10.3,0,15.8
	c0.1,3.8,0.1,7.1,0,10.9c0,1.9,0.1,3.4,0,5.3c0,1.9,0.1,3.4,0,5.3c0.2,4.3,0.1,8.2,0,12.5c0,2.2,0.2,4,0,6.3c0.2,4.3,0.1,8.2,0,12.4
	c0,1.9,0.1,3.3,0,5.2c-0.1,1.6,0.1,2.7,0,4.2c0,1,0,1.6,0,2.6C162.3-54.2,162.6-51.9,161.2-49.4z"/>
<path class="st1" d="M161.3-175.7c-0.5-7.7-0.6-15-0.7-22.9c4.5-1.9,9.1-0.8,13.7-1.1c2.5-0.2,2.4,1.6,2.4,3.3
	c-0.1,6.5-0.1,12.9-0.2,19.8C171.6-173.3,166.7-174.1,161.3-175.7z"/>
<path class="st2" d="M161.3-120.7c-0.4-5.3-0.5-10.4-0.4-15.9c4.9-3.1,9.9-2.3,15.3-0.8c0.4,3.7,0.5,7.1,0.7,10.9c0,1.2,0,2,0,3.1
	c0,0.8-0.1,1.3-0.3,2.1C171.6-118.3,166.7-119.1,161.3-120.7z"/>
<path class="st3" d="M176.6-137.5c-5,0.5-9.9,0.5-15.2,0.5c-0.5-4.4-0.6-8.7-0.5-13.5c4.9-3.1,9.9-2.3,15.3-0.8
	C176.5-146.7,176.6-142.3,176.6-137.5z"/>
<path class="st4" d="M161.3-86.7c-0.4-4.3-0.4-8.4-0.4-12.8c4.9-3.1,9.9-2.4,15.3-0.8c0.4,4.4,0.5,8.4,0.5,12.9
	C171.7-84.3,166.7-85.1,161.3-86.7z"/>
<path class="st5" d="M161.3-67.7c-0.4-4.3-0.5-8.4-0.5-12.8c4.9-3.1,9.9-2.4,15.3-0.8c0.4,4.4,0.4,8.4,0.4,12.8
	C171.6-65.3,166.7-66.1,161.3-67.7z"/>
<path class="st3" d="M160.9-120.5c5-0.5,9.9-0.5,15.2-0.4c0.5,3.4,0.6,6.7,0.6,10.5c-5,3.1-10,2.3-15.4,0.7
	C160.9-113.4,160.8-116.7,160.9-120.5z"/>
<path class="st6" d="M176.6-151.5c-5,0.5-9.9,0.5-15.2,0.5c-0.5-3-0.6-6.1-0.5-9.6c4.9-3.1,9.9-2.3,15.3-0.8
	C176.5-158,176.6-155,176.6-151.5z"/>
<path class="st7" d="M176.6-161.5c-5,0.4-9.9,0.5-15.2,0.5c-0.5-2.4-0.6-4.8-0.5-7.6c4.9-3.1,9.9-2.3,15.3-0.8
	C176.5-166.6,176.6-164.3,176.6-161.5z"/>
<path class="st3" d="M161.4-49c-0.5-2.4-0.6-4.7-0.6-7.5c5-3,10-2,15.4-0.8c0.4,1.8,0.4,3.3,0.5,4.7c0.3,2.7-0.8,3.8-3.6,3.7
	C169.4-49.2,165.6-49,161.4-49z"/>
<path class="st4" d="M176.6-169.5c-5,0.4-9.8,0.4-15.2,0.4c-0.5-2.1-0.6-4.1-0.5-6.6c5-0.4,9.9-0.4,15.2-0.4
	C176.5-174,176.6-171.9,176.6-169.5z"/>
<path class="st1" d="M176.6-81.4c-5,0.4-9.9,0.4-15.2,0.4c-0.5-1.7-0.6-3.4-0.5-5.6c5-0.4,9.9-0.4,15.3-0.4
	C176.6-85.3,176.6-83.5,176.6-81.4z"/>
<path class="st6" d="M160.8-109.6c5-0.4,9.9-0.4,15.3-0.4c0.5,1.4,0.5,2.8,0.5,4.6c-4.9,3.1-9.9,2.3-15.3,0.7
	C160.9-106.4,160.8-107.8,160.8-109.6z"/>
<path class="st7" d="M160.8-104.6c5-0.4,9.9-0.4,15.2-0.4c0.5,1.4,0.6,2.8,0.5,4.6c-5,0.4-9.8,0.4-15.2,0.4
	C160.9-101.4,160.8-102.8,160.8-104.6z"/>
<path class="st1" d="M160.8-67.6c5-0.4,9.9-0.4,15.2-0.4c0.5,1.4,0.5,2.8,0.5,4.6c-4.9,3.2-9.9,2.4-15.3,0.7
	C160.9-64.4,160.8-65.8,160.8-67.6z"/>
<path class="st4" d="M160.8-62.6c5-0.4,9.9-0.4,15.2-0.4c0.5,1.1,0.5,2.1,0.5,3.6c-4.9,2.3-9.9,1.4-15.3,0.7
	C160.9-60.1,160.8-61.2,160.8-62.6z"/>
<path class="st7" d="M160.8-58.7c5-0.3,9.9-0.3,15.2-0.3c0.5,0.4,0.6,0.9,0.6,1.7c-5,0.4-9.9,0.4-15.3,0.4
	C160.8-57.5,160.8-57.9,160.8-58.7z"/>
<path class="st0" d="M938.4-52.1c-4.1-5.6-8.1-11.3-12.2-17c-9.9-13.7-19.9-27.3-29.8-41c-1.4-2-2.4-3.9,0.8-5.6
	c17.7-9.3,23.9-24.8,22.4-43.6c-1-13.2-6.8-24.4-18.2-32.3c-10.3-7.1-22.1-7.7-33.8-8.1c-16.3-0.6-32.6-0.2-49-0.1
	c-6.2,0-6.9,0.8-6.9,6.8c0,26,0,52,0,78c0,20.3,0.1,40.6-0.1,61c0,4.2,1.3,5.5,5.4,5.3c6-0.3,12-0.1,18-0.1c5.9,0,6.6-0.6,6.7-6.5
	c0.1-9.3,0-18.7,0-28.5c0-7.7,0.1-14.8,0-22c-0.1-3,1-4.2,4-4.1c5,0.2,10,0.3,15,0c3.3-0.2,5.1,1.1,6.9,3.7
	c13,18.2,26.1,36.3,39.2,54.5c1.3,1.8,2.6,2.9,4.9,2.9c8.3-0.1,16.7,0,25,0C939.3-49,940.1-49.7,938.4-52.1z M876-137
	c-10.4,1.9-20.9,0.7-31.3,0.9c-4.6,0.1-3.6-3.8-3.8-7.1c0-8.5,0-16.4,0-24.4c0-4.3,1.3-6.8,6.4-6.4c9.2,0.6,18.5-0.5,27.8,1
	c8.8,1.4,15.6,8.7,15.8,17.7C891-146.1,884.9-138.6,876-137z"/>
<path class="st0" d="M796.4-54.7c-10.5-28.7-21-57.4-31.5-86.1c-6.6-17.9-13.3-35.8-19.7-53.8c-1.4-3.8-3.5-5.4-7.2-5.5
	c-5.8-0.1-11.7-0.1-17.5,0c-3.7,0.1-6.1,1.6-7.1,5.5c-1.2,4.5-3,8.8-4.6,13.2c-8.1,22-16.2,44-24.3,66
	c-7.6,20.7-15.2,41.5-22.8,62.2c-1.1,3.1-0.5,4.2,2.9,4.2c6.8-0.1,13.7-0.2,20.5,0c3.4,0.1,5-1,6.1-4.3c2.7-8.4,5.7-16.7,9-24.8
	c0.8-2.1,0.7-5.2,4.3-5.9c16.3,0,32.1,0.1,47.9-0.1c3.2,0,4.7,1,5.7,4.1c3.1,9.1,6.7,18.1,9.9,27.2c1.1,3.1,2.6,4,5.8,3.9
	c6.2-0.2,12.3-0.1,18.5-0.1C798.3-49,798.4-49.1,796.4-54.7z M742.7-110c-8.5-0.1-17,0-25.5,0c-4.6,0-5.3-1.1-3.7-5.4
	c4.7-12.8,9.4-25.5,14.2-38.7c2.2-3.4,2.8-1.2,3.4,0.6c3.2,8.7,6.5,17.4,9.6,26.1c1.6,4.5,2.8,9.2,4.8,13.5
	C747.1-110.2,745.6-109.9,742.7-110z"/>
<path class="st0" d="M406.3-54.1c-4.8-12.4-9.5-24.8-14.1-37.2c-11-30.1-21.7-60.3-32.9-90.3c-2.2-5.9-2.2-13.7-8-17
	c-5.8-3.4-13.1-0.9-19.7-1.3c-0.7,0-1.3-0.1-2,0.1c-3.1,0.5-5.4,1.5-6.5,5.1c-2.2,7.1-5,14.1-7.6,21.4
	c-5.6,15.3-11.1,30.3-16.6,45.2c-9.3,25.4-18.7,50.8-28.1,76.1c-1,2.8,0,3.2,2.3,3.1c7.5,0,15-0.1,22.5,0c2.6,0,3.7-1.2,4.6-3.5
	c3.3-9.2,6.9-18.4,10.1-27.6c1-2.8,2.3-4,5.3-3.9c15.5,0.1,31,0.1,46.5,0c2.7,0,4.2,0.8,5.1,3.5c3.1,9.1,6.7,18,9.9,27.1
	c1.1,3.1,2.5,4.6,6,4.5c6.7-0.3,13.3-0.4,20,0C408.1-48.6,407.6-50.7,406.3-54.1z M351.2-109.9c-8.5-0.2-17-0.1-25.5,0
	c-2.9,0-4.5-0.4-3.2-3.9c4.9-13.2,9.7-26.5,14.5-39.7c0.4-1,0.2-2.8,1.6-2.7c1.6,0,1.6,1.8,2,3.4c4.7,13,9.2,25.6,14,38.2
	C356.3-110.8,355.1-109.8,351.2-109.9z"/>
</svg>
