<svg width="13" height="17" viewBox="0 0 13 17" fill="none" xmlns="http://www.w3.org/2000/svg">
<path d="M11.9177 1.24023L12.1322 1.69186C12.3066 1.60904 12.4177 1.43326 12.4177 1.24023C12.4177 1.04721 12.3066 0.871425 12.1322 0.788601L11.9177 1.24023ZM11.9177 15.1444L12.1322 15.596C12.3066 15.5132 12.4177 15.3374 12.4177 15.1444C12.4177 14.9514 12.3066 14.7756 12.1322 14.6928L11.9177 15.1444ZM8.02202 8.19231C8.02202 5.32393 9.70112 2.84674 12.1322 1.69186L11.7031 0.788601C8.9365 2.10286 7.02202 4.92351 7.02202 8.19231H8.02202ZM12.1322 14.6928C9.70112 13.5379 8.02202 11.0607 8.02202 8.19231H7.02202C7.02202 11.4611 8.9365 14.2818 11.7031 15.596L12.1322 14.6928ZM11.7031 14.6928C10.7696 15.1362 9.72501 15.3846 8.62102 15.3846V16.3846C9.87655 16.3846 11.0674 16.1018 12.1322 15.596L11.7031 14.6928ZM8.62102 15.3846C4.64882 15.3846 1.42871 12.1645 1.42871 8.19231H0.428711C0.428711 12.7168 4.09653 16.3846 8.62102 16.3846V15.3846ZM1.42871 8.19231C1.42871 4.22011 4.64882 1 8.62102 1V0C4.09653 0 0.428711 3.66782 0.428711 8.19231H1.42871ZM8.62102 1C9.72501 1 10.7696 1.24839 11.7031 1.69186L12.1322 0.788601C11.0674 0.282783 9.87655 0 8.62102 0V1Z" fill="#464646"/>
</svg>
