<svg width="74" height="32" viewBox="0 0 74 32" fill="none" xmlns="http://www.w3.org/2000/svg">
<g clip-path="url(#clip0_185_1582)">
<path fill-rule="evenodd" clip-rule="evenodd" d="M68.3455 17.995C68.9769 18.5753 69.6216 19.168 70.5098 19.2298C71.794 19.3939 72.9697 18.3809 73.2073 17.1521V7.54372C73.2912 7.06771 73.0188 6.62223 72.6221 6.36772C71.9321 5.92726 70.8897 6.35085 70.7466 7.179C70.7067 8.70981 70.7073 10.2414 70.7078 11.773C70.7083 13.1492 70.7088 14.5254 70.6801 15.9011C70.6616 15.9553 70.669 16.063 70.6766 16.1706V16.1707C70.6912 16.3815 70.7059 16.592 70.5257 16.4C68.5786 14.6884 66.6619 12.9423 64.7453 11.1961L64.745 11.1961V11.196C63.5408 10.0988 62.3363 9.0017 61.1244 7.91312C60.9272 7.75258 60.7353 7.57075 60.541 7.38703V7.38701V7.38698C59.9191 6.79828 59.2769 6.19004 58.3773 6.20044C58.2986 6.19109 58.22 6.18716 58.1421 6.18716C56.9761 6.18716 55.9765 7.16392 55.754 8.28574V17.8646C55.6505 18.4692 56.1185 19.055 56.6916 19.213C57.389 19.3702 57.9953 18.9387 58.2339 18.3005C58.2358 17.4989 58.2371 16.6973 58.2382 15.8957C58.2411 14.0125 58.2437 12.1293 58.2548 10.2461C58.2944 10.1249 58.277 9.89088 58.2595 9.65497C58.2297 9.25501 58.1996 8.84952 58.4464 8.97892C60.1585 10.4867 61.8324 12.0371 63.5062 13.5875V13.5876V13.5877V13.5877C64.9068 14.8851 66.3077 16.1826 67.7307 17.4551C67.9395 17.6216 68.1417 17.8076 68.3455 17.995ZM73.1725 25.0417C73.1012 25.2205 72.8591 25.4251 72.6258 25.5048C72.3499 25.5992 71.9054 25.6172 71.6404 25.545C71.194 25.4237 70.867 25.078 70.867 24.7269V24.6386H71.1586H71.4506L71.5076 24.7546C71.5916 24.9272 71.7769 25.0105 72.0749 25.0105C72.3679 25.0105 72.502 24.9499 72.5849 24.7804C72.6385 24.6706 72.6398 24.6476 72.5999 24.5342C72.5429 24.3708 72.4302 24.3073 72.1205 24.2642C71.4295 24.168 71.1745 24.0592 71.0077 23.7886C70.9219 23.6493 70.9132 23.6123 70.9137 23.37C70.9139 23.0534 70.9842 22.8789 71.1824 22.6994C71.3471 22.5508 71.5195 22.4769 71.8056 22.4324C71.8764 22.4216 71.9484 22.4162 72.021 22.4155C72.3354 22.4133 72.6546 22.5067 72.8699 22.6707C72.9848 22.7583 73.116 23.0121 73.1461 23.2049L73.1664 23.3363H72.8538C72.6036 23.3363 72.5408 23.3276 72.5408 23.2924C72.5408 23.2117 72.3911 23.0688 72.2678 23.0318C72.2008 23.0121 72.0897 22.9956 72.02 22.9956C71.5889 22.9956 71.3548 23.4174 71.6771 23.6137C71.7317 23.6464 71.8748 23.6884 71.9954 23.7067C72.5455 23.79 72.6392 23.8112 72.815 23.8948C72.9433 23.9551 73.0318 24.0237 73.0954 24.1116C73.2612 24.3407 73.2944 24.7377 73.1725 25.0417ZM69.9985 22.5106C69.9985 22.5343 69.7688 23.2275 69.4872 24.0521C69.2058 24.8763 68.9756 25.5555 68.9756 25.5609C68.9756 25.5666 68.8885 25.567 68.7821 25.5619L68.5884 25.5526L68.3178 24.7934C68.1692 24.3755 68.0359 24.0076 68.0219 23.9756C68.0032 23.9333 67.9224 24.1328 67.7149 24.7352L67.4335 25.5526L67.2358 25.5616L67.0381 25.5705L66.5344 24.0995C66.2575 23.2907 66.0308 22.5925 66.0308 22.5483V22.4679H66.3549H66.6791L66.8319 22.9407C66.9164 23.201 67.0447 23.6421 67.1178 23.9207L67.2498 24.4279L67.5238 23.5955C67.674 23.137 67.812 22.7102 67.8295 22.6463C67.8609 22.535 67.8675 22.53 67.9966 22.53H68.1312L68.4324 23.4214C68.5981 23.9117 68.7439 24.3314 68.7568 24.3547C68.7708 24.3795 68.8333 24.1846 68.9107 23.874C68.9825 23.5868 69.1042 23.1529 69.1815 22.9102L69.3217 22.4679H69.6604C69.9267 22.4679 69.9985 22.4769 69.9985 22.5106ZM64.4649 24.9481H65.0697V25.2428V25.5372H64.1397H63.2095V24.0025V22.4679H64.1241H65.0385V22.7623V23.0574H64.4494H63.8607V23.3671V23.677H64.4034H64.9456V23.9562V24.2352H64.4034H63.8607V24.5916V24.9481H64.4649ZM61.8456 22.4679H61.5359H61.2266L61.2181 23.3259L61.2099 24.1838L60.3927 23.3259C59.6372 22.5336 59.567 22.4679 59.4701 22.4679H59.365V24.0025V25.5372H59.6757H59.9854V24.6846C59.9854 24.2158 59.9967 23.832 60.0102 23.832C60.0236 23.832 60.3969 24.2143 60.8396 24.6821C61.5618 25.4453 61.6539 25.5321 61.7447 25.5346L61.8456 25.5372V24.0025V22.4679ZM55.6463 22.6146L55.4451 22.5152L54.6772 22.5051L53.9091 22.4947V24.0164V25.5378H54.5236C54.8615 25.5378 55.2205 25.5227 55.3221 25.504C55.7294 25.4286 56.0813 25.1695 56.275 24.8004C56.4181 24.5287 56.4574 24.3517 56.4556 23.9877C56.4543 23.6302 56.3806 23.3667 56.2082 23.1003C56.0641 22.877 55.9139 22.7471 55.6463 22.6146ZM54.8467 24.9465C55.0053 24.9458 55.1864 24.9268 55.2508 24.9034C55.6365 24.766 55.8548 24.4012 55.8242 23.9443C55.8049 23.6531 55.7067 23.4302 55.5285 23.273C55.354 23.1197 55.2416 23.0885 54.8625 23.0885L54.5603 23.0881V24.0179V24.948L54.8467 24.9465ZM52.1426 24.4317C52.1426 24.4173 52.1917 24.3743 52.2511 24.3355C52.5077 24.1693 52.656 23.8225 52.6317 23.4453C52.6053 23.04 52.4 22.728 52.0518 22.5647C51.8823 22.485 51.8641 22.4832 51.1113 22.4731L50.3442 22.4624V23.9999V25.537H50.6543H50.964V25.0255V24.5139H51.225H51.4856L51.7918 25.0179L52.0977 25.5216L52.4456 25.5302C52.7363 25.5377 52.7933 25.5313 52.7933 25.4932C52.7933 25.4677 52.647 25.2247 52.4675 24.9522C52.2886 24.6801 52.1423 24.4457 52.1426 24.4317ZM51.7696 23.9335C51.6862 23.9751 51.5832 23.9877 51.3129 23.9877H50.964V23.5228V23.058H51.3441C51.7791 23.058 51.8945 23.1007 51.9737 23.2899C52.08 23.5451 51.9924 23.8215 51.7696 23.9335ZM46.5612 22.8671C46.8455 22.5828 47.2299 22.4378 47.6169 22.4335C48.0036 22.4295 48.3927 22.5663 48.6867 22.8441C48.9834 23.1249 49.1336 23.5194 49.1347 24.0198C49.1357 24.6685 48.8433 25.1703 48.3106 25.4338C48.0822 25.5465 48.0608 25.5508 47.6976 25.5605C47.3666 25.5695 47.2964 25.5619 47.1129 25.4977C46.4937 25.2812 46.1297 24.7395 46.1283 24.032C46.1273 23.5409 46.2693 23.1593 46.5612 22.8671ZM48.2382 24.7321C48.1477 24.8226 48.0379 24.8951 47.9429 24.9278C47.4783 25.0857 47.0084 24.8771 46.845 24.4403C46.7629 24.2206 46.7558 23.8487 46.83 23.6189C46.9485 23.2517 47.2977 23.0352 47.6578 23.0413C47.8214 23.0438 47.9875 23.0923 48.135 23.1939C48.2462 23.2696 48.3092 23.3472 48.3908 23.5062C48.4898 23.6993 48.4996 23.7403 48.4996 23.984C48.4993 24.339 48.4286 24.5415 48.2382 24.7321ZM45.1292 24.4215H44.827H44.5242L44.45 24.5655C44.3505 24.7593 44.199 24.8742 43.9641 24.9341C43.8078 24.974 43.7373 24.9772 43.614 24.951C43.2912 24.8817 43.1172 24.7414 42.9763 24.437C42.8137 24.0848 42.8765 23.6063 43.1217 23.3277C43.335 23.085 43.6481 22.9914 43.9701 23.0739C44.1905 23.1303 44.3352 23.2326 44.4305 23.3999L44.5002 23.5223L44.8029 23.5227H44.8185C44.9933 23.5227 45.0714 23.5227 45.0941 23.4872C45.1126 23.4585 45.0944 23.4065 45.0614 23.3123L45.0577 23.3015C44.8747 22.7778 44.3621 22.4533 43.7257 22.4579C43.0267 22.4629 42.4906 22.8643 42.3098 23.518C42.2395 23.7703 42.2348 24.2147 42.2989 24.4621C42.4462 25.0278 42.8615 25.4166 43.4467 25.5365C44.2035 25.6916 44.9487 25.2486 45.1004 24.5533L45.1292 24.4215ZM40.6021 24.9413L41.1987 24.9495V25.2435V25.5372H40.2846H39.3697V24.0025V22.4679H40.2688H41.1678V22.7623V23.0574H40.5789H39.99V23.3671V23.677H40.5322H41.0749V23.9562V24.2352H40.5314H39.9879L39.9966 24.5841L40.0056 24.9326L40.6021 24.9413ZM37.6312 24.3758C37.5987 24.3862 37.5718 24.407 37.5718 24.4225C37.5718 24.4379 37.7186 24.6723 37.8973 24.9426C38.0765 25.2133 38.223 25.4578 38.223 25.4861C38.223 25.5306 38.1786 25.5374 37.8843 25.5374H37.5464L37.2392 25.0338L36.9319 24.5298H36.6706H36.4093L36.4008 25.0338L36.3921 25.5374H36.083H35.7739V24.0007V22.4635L36.5444 22.474L37.3149 22.484L37.5272 22.5924C37.7766 22.7195 37.94 22.9112 38.0221 23.1732C38.095 23.4048 38.0744 23.7961 37.9788 23.9813C37.8954 24.1425 37.713 24.3496 37.6312 24.3758ZM37.2331 23.9206C37.1299 23.9787 37.0655 23.9877 36.7535 23.9877H36.3934V23.5228V23.058H36.7738C37.0953 23.058 37.1682 23.0673 37.2526 23.1186C37.5325 23.2891 37.5214 23.759 37.2331 23.9206ZM52.0996 16.2816C51.3565 15.6947 50.573 15.1624 49.788 14.6343C51.5532 14.6713 53.1987 13.2533 53.3822 11.4908C53.3854 11.3855 53.3888 11.2799 53.3925 11.1741V11.174C53.4202 10.3622 53.4487 9.53627 53.2679 8.7446C52.8764 7.42644 51.654 6.34304 50.2774 6.20844H36.6883C36.0959 6.41879 35.7066 7.01576 35.7934 7.64865C35.7625 11.0571 35.7596 14.4667 35.7958 17.8751C35.6857 18.7033 36.5455 19.4349 37.3464 19.2034C37.9083 19.035 38.3716 18.4628 38.2745 17.8619C38.2856 17.5722 38.2848 17.2806 38.284 16.9888C38.2824 16.3908 38.2811 15.7923 38.3801 15.2087C38.5596 14.7729 39.0339 14.5521 39.4829 14.6257C39.7025 14.6262 39.9227 14.625 40.1431 14.6238C41.5619 14.6163 42.9919 14.6088 44.359 15.0403C46.9955 15.7619 49.2553 17.3722 51.4209 18.9786C52.112 19.5792 53.2756 19.0706 53.3885 18.1893C53.5527 17.4054 52.9123 16.9116 52.3509 16.4788V16.4788C52.264 16.4119 52.1793 16.3465 52.0996 16.2816ZM41.4611 12.0321C43.7296 12.0293 45.9982 12.0265 48.2667 12.0187C48.5154 11.9997 48.7696 12.0066 49.0243 12.0136C49.5079 12.0268 49.9926 12.04 50.4421 11.8761C51.0062 11.5712 50.9825 10.96 50.9603 10.388C50.9542 10.2375 50.9487 10.0897 50.9537 9.95096C51.0434 9.42722 50.6298 8.87977 50.1011 8.82376C48.1319 8.79684 46.1626 8.7929 44.1934 8.79433C43.5615 8.79467 42.9298 8.79565 42.2979 8.79663C40.9601 8.79868 39.6223 8.80074 38.285 8.79684V12.0366C39.3435 12.0348 40.4023 12.0335 41.4611 12.0321Z" fill="black"/>
<path fill-rule="evenodd" clip-rule="evenodd" d="M30.2542 12.587C30.1091 15.9955 27.7381 18.7776 25.3915 21.0287C22.281 24.0444 18.3078 26.3308 13.9366 26.7458C12.5542 26.8161 10.2772 27.1518 10.4929 29.0094C10.7747 30.8896 12.8873 31.4965 14.507 31.6435C18.0601 31.8924 21.6581 30.713 24.5267 28.6414C28.7462 25.5805 30.9023 20.2795 30.6444 15.144C30.6895 14.6264 30.3791 12.3016 30.2822 12.3016C30.264 12.3016 30.2532 12.3871 30.2542 12.587Z" fill="url(#paint0_linear_185_1582)"/>
<path fill-rule="evenodd" clip-rule="evenodd" d="M15.0703 -7.62939e-06C11.3251 0.0143514 7.58959 1.3799 4.94177 4.08728C5.6278 3.68164 7.18466 3.06134 8.35887 3.0818C13.8365 2.93715 19.0614 5.69084 22.7851 9.57461C24.1829 10.8303 25.0742 12.72 26.861 13.4824C27.0587 13.5406 27.2693 13.5557 27.4734 13.5248C29.0648 13.1066 29.6791 11.1756 29.3388 9.70277C28.1597 6.78824 26.0438 4.25923 23.4388 2.50457C21.0268 0.843227 18.1047 0.0100437 15.1819 -7.62939e-06H15.0703Z" fill="url(#paint1_linear_185_1582)"/>
<path fill-rule="evenodd" clip-rule="evenodd" d="M3.44594 6.17676C1.60474 8.37729 0.575201 11.15 0.170995 13.973C-0.0924939 15.4599 0.0270451 17.1169 0.164174 18.532C0.403969 19.6147 0.595663 20.8126 1.01818 21.8784C2.62531 26.4188 6.59091 29.9539 11.2056 31.2563L11.3728 31.2843C10.5106 30.7283 9.69104 30.0806 9.05208 29.2586C8.50176 28.5313 7.88 27.5942 7.62084 26.8097C6.70149 24.9254 6.242 22.8465 6.00113 20.7566C5.48565 17.2677 6.17989 13.7422 7.13334 10.4116C7.5336 9.02631 8.32479 7.43534 7.51781 6.05328C7.05687 5.59162 6.44087 5.40389 5.79938 5.40389C4.96117 5.40389 4.07988 5.72516 3.44594 6.17676Z" fill="url(#paint2_linear_185_1582)"/>
</g>
<defs>
<linearGradient id="paint0_linear_185_1582" x1="10.4785" y1="31.6768" x2="30.6652" y2="31.6768" gradientUnits="userSpaceOnUse">
<stop stop-color="#AFEDFF"/>
<stop offset="1" stop-color="#2856FB"/>
</linearGradient>
<linearGradient id="paint1_linear_185_1582" x1="-1.90649" y1="6.32099" x2="10.4407" y2="23.2005" gradientUnits="userSpaceOnUse">
<stop stop-color="#AFEDFF"/>
<stop offset="1" stop-color="#2856FB"/>
</linearGradient>
<linearGradient id="paint2_linear_185_1582" x1="0.0144811" y1="31.2843" x2="11.3727" y2="31.2843" gradientUnits="userSpaceOnUse">
<stop stop-color="#AFEDFF"/>
<stop offset="1" stop-color="#2856FB"/>
</linearGradient>
<clipPath id="clip0_185_1582">
<rect width="73.3833" height="31.6763" fill="white"/>
</clipPath>
</defs>
</svg>
